<?xml version="1.0" encoding="UTF-8" standalone="no"?>
<svg
   xmlns:dc="http://purl.org/dc/elements/1.1/"
   xmlns:cc="http://creativecommons.org/ns#"
   xmlns:rdf="http://www.w3.org/1999/02/22-rdf-syntax-ns#"
   xmlns:svg="http://www.w3.org/2000/svg"
   xmlns="http://www.w3.org/2000/svg"
   width="144.88315mm"
   height="144.84378mm"
   viewBox="0 0 144.88315 144.84378"
   version="1.1"
   id="svg3050">
  <defs
     id="defs3044">
    <clipPath
       clipPathUnits="userSpaceOnUse"
       id="clipPath3106">
      <path
         d="M 12,68 H 829.92 V 528 H 12 Z"
         id="path3104" />
    </clipPath>
    <clipPath
       clipPathUnits="userSpaceOnUse"
       id="clipPath3116">
      <path
         d="M 12,68 H 830 V 528 H 12 Z"
         id="path3114" />
    </clipPath>
  </defs>
  <metadata
     id="metadata3047">
    <rdf:RDF>
      <cc:Work
         rdf:about="">
        <dc:format>image/svg+xml</dc:format>
        <dc:type
           rdf:resource="http://purl.org/dc/dcmitype/StillImage" />
        <dc:title></dc:title>
      </cc:Work>
    </rdf:RDF>
  </metadata>
  <g
     id="layer1"
     transform="translate(-33.696559,-80.280495)">
    <g
       id="g3096"
       transform="matrix(0.35277777,0,0,-0.35277777,-42.686108,257.83016)">
      <g
         id="g3098" />
      <g
         id="g3110">
        <g
           id="g3112"
           clip-path="url(#clipPath3116)">
          <path
             d="m 216.5178,298 c 0,113.3788 91.9367,205.2904 205.3462,205.2904 113.4096,0 205.3462,-91.9116 205.3462,-205.2904 0,-113.3787 -91.9366,-205.2904 -205.3462,-205.2904 -113.4095,0 -205.3462,91.9117 -205.3462,205.2904 z"
             style="fill:#cccccc;fill-opacity:1;fill-rule:nonzero;stroke:none"
             id="path3120" />
          <g
             id="g3122"
             transform="matrix(6.709317e-5,0,0,-6.707495e-5,228.2404,491.5711)">
            <path
               d="M 0,2885892 C -152104,1198237 974105,119333 2885892,0 4633675,32410 5685888,1294789 5771784,2885892 5463307,4780970 4425949,6069028 2885892,5771784 1039890,5633817 305575,4625732 0,2885892 Z"
               style="fill:none;stroke:#faf8f4;stroke-width:31750;stroke-linecap:butt;stroke-linejoin:miter;stroke-miterlimit:8;stroke-dasharray:none;stroke-opacity:1"
               id="path3124" />
          </g>
          <path
             d="m 290.8036,409.1067 c 0.4834,0.5362 1.042,1.0151 1.6758,1.4369 0.6338,0.4217 1.4374,0.8912 2.4107,1.4083 l 1.9433,1.1008 c 2.5865,1.5564 5.5615,1.5163 8.9249,-0.1202 3.3635,-1.6365 6.9922,-4.2092 10.8863,-7.7181 0.2565,-0.2312 1.9272,-1.7999 5.012,-4.7064 1.1962,-1.2045 2.2839,-2.2481 3.2632,-3.1305 l 1.1158,-0.9421 c 0.7439,-0.628 1.9623,-1.6203 3.6553,-2.9768 5.2002,-4.2633 9.0828,-7.5506 11.6478,-9.8618 l 1.2941,-1.1662 c 1.1426,-1.0295 2.4228,-2.0353 3.8408,-3.0172 1.4179,-0.9819 2.2423,-1.5558 2.4732,-1.7216 1.5206,-1.0321 2.7543,-1.8903 3.7011,-2.5745 0.9468,-0.6842 1.8516,-1.4149 2.7144,-2.1924 0.6529,-0.5883 1.2859,-1.2221 1.8991,-1.9013 0.4966,-0.5742 0.8513,-1.3058 1.0641,-2.1947 0.2129,-0.8889 0.4121,-2.0507 0.5977,-3.4855 0.1042,-1.1501 0.2132,-1.9666 0.3272,-2.4495 0.0884,-0.4177 -0.0146,-0.7896 -0.3088,-1.116 -0.1681,-0.1865 -0.415,-0.3549 -0.7406,-0.5051 -0.3256,-0.1502 -0.6518,-0.2893 -0.9786,-0.4174 -0.4807,-0.1583 -0.8565,-0.3055 -1.1273,-0.4418 -0.2707,-0.1363 -0.4564,-0.307 -0.5569,-0.5122 -0.4088,-0.6878 -0.8158,-1.3034 -1.2211,-1.8466 -0.4052,-0.5432 -0.6592,-0.8953 -0.762,-1.0561 -0.2686,-0.3917 -1.0212,-0.5586 -2.2578,-0.5005 -1.2366,0.0581 -2.5315,0.2742 -3.8845,0.6484 -1.3531,0.3742 -2.2511,0.761 -2.6942,1.1602 -1.2614,1.1789 -2.5655,2.3223 -3.9122,3.4301 -1.3467,1.1079 -2.6112,2.1311 -3.7935,3.0697 -1.1823,0.9386 -1.9472,1.5433 -2.2946,1.8142 -0.4408,0.3549 -1.6347,1.304 -3.5819,2.8473 -1.9472,1.5434 -3.737,3.0504 -5.3692,4.5212 -0.5363,0.4833 -1.5927,1.3506 -3.1691,2.6021 -2.1314,1.6671 -3.7917,3.0365 -4.981,4.108 -2.4716,2.2272 -4.0942,4.154 -4.8677,5.7805 -0.3495,0.7374 -2.0741,2.7034 -5.1739,5.8979 -3.0998,3.1946 -5.8389,5.8634 -8.2174,8.0066 -1.7022,1.5338 -2.6513,2.2623 -2.8473,2.1854 -0.2171,-0.1001 0.357,-2.3813 1.7222,-6.8436 1.3652,-4.4622 2.2505,-7.1717 2.6558,-8.1284 1.2858,-2.9332 2.449,-5.3227 3.4895,-7.1686 1.0404,-1.8459 2.3453,-3.5392 3.9145,-5.08 0.0814,-0.2846 0.206,-0.6504 0.3737,-1.0972 0.1676,-0.4468 0.27,-0.8137 0.3072,-1.1007 0.0371,-0.2869 -0.0284,-0.5236 -0.1966,-0.7101 -0.3152,-0.3497 -1.1004,-0.4238 -2.3556,-0.2222 -0.2916,0.0515 -0.5378,0.0832 -0.7384,0.095 -0.2007,0.0118 -0.3792,0.0248 -0.5355,0.0389 -0.9379,0.0846 -1.695,0.2176 -2.2712,0.3988 -0.5762,0.1812 -1.1569,0.5566 -1.7422,1.1262 -0.7695,0.6934 -2.4999,1.9146 -5.1913,3.6638 -2.6913,1.7491 -5.236,3.1337 -7.6339,4.1537 -2.3979,1.0199 -3.8154,1.0297 -4.2525,0.0293 -0.1379,-0.3405 2.7953,-3.3214 8.7995,-8.943 1.5902,-1.5174 2.5147,-2.4138 2.7735,-2.6892 l 3.1582,-3.036 c 2.5742,-2.4885 4.6948,-4.5895 6.3619,-6.3029 1.6671,-1.7135 3.2594,-3.4863 4.7771,-5.3186 1.3311,-1.6641 2.7422,-3.2631 4.2332,-4.7967 1.491,-1.5337 3.3837,-3.4187 5.6781,-5.6551 1.9423,-1.8769 3.818,-3.7573 5.6273,-5.6411 0.6598,-0.7213 1.0048,-1.2645 1.0348,-1.6296 0.0301,-0.3651 -0.0892,-0.7434 -0.3578,-1.1351 -0.1846,-0.2985 -0.3032,-0.5824 -0.3559,-0.8518 -0.0527,-0.2694 0.0211,-0.6211 0.2215,-1.0551 0.0325,-0.1983 0.1066,-0.9833 0.2223,-2.355 0.1156,-1.3717 0.2587,-1.9865 0.4291,-1.8443 -0.2358,-0.1678 -0.4813,-0.1472 -0.7367,0.0617 -0.2553,0.209 -0.3935,0.3018 -0.4145,0.2785 -0.0421,-0.0466 0.0159,-0.5213 0.1739,-1.4242 l -3.5092,-3.0486 c -0.1028,-0.1609 -0.5353,-0.5 -1.2975,-1.0173 -0.7622,-0.5173 -1.5302,-0.9238 -2.3039,-1.2195 -0.7737,-0.2956 -1.3121,-0.3069 -1.6152,-0.0338 -0.2099,0.1891 -0.2914,0.4738 -0.2444,0.854 0.0841,0.0932 0.1804,0.2704 0.2891,0.5316 0.1087,0.2612 0.1164,0.4338 0.0232,0.5179 -0.1633,0.147 -0.5495,0.0937 -1.1587,-0.1601 -1.0666,-0.4331 -2.2645,-0.0509 -3.5936,1.1468 l -1.0178,0.9805 c -0.5875,0.6139 -0.9851,0.9932 -1.1926,1.138 -0.7603,0.5161 -1.5835,1.1733 -2.4696,1.9718 -1.6322,1.4708 -3.6105,3.6125 -5.9347,6.425 -0.3777,0.4249 -0.8213,0.9407 -1.3307,1.5476 -0.5093,0.6069 -1.1056,1.2814 -1.7887,2.0237 -4.192,4.5379 -10.2808,10.9327 -18.2664,19.1846 l -2.7489,2.8573 c -0.3287,0.3384 -0.9291,0.985 -1.8011,1.9397 -1.8582,1.9702 -3.1487,3.2809 -3.8716,3.9323 -2.0986,1.891 -3.9679,3.0051 -5.608,3.3422 -0.6509,0.1217 -1.1629,0.3507 -1.536,0.6869 -0.5829,0.5253 -0.7031,1.2357 -0.3607,2.1312 0.3425,0.8955 0.9867,1.8677 1.9324,2.9168 0.8197,0.9091 1.7624,1.8024 2.8282,2.6799 1.0658,0.8775 1.8894,1.498 2.4706,1.8614 1.8558,1.074 3.796,1.9135 5.8206,2.5186 2.0246,0.605 4.0484,0.9044 6.0714,0.8983 l 1.9985,0.037 c 1.197,0.0621 2.1852,0.08 2.9645,0.0538 0.7793,-0.0262 1.5317,-0.1761 2.2572,-0.4495 0.1586,-0.0585 1.3465,-0.569 3.5636,-1.5317 2.2171,-0.9627 3.5311,-1.3334 3.9419,-1.1121 0.0864,0.0489 -0.8809,3.0542 -2.9019,9.0157 -1.9395,5.6768 -2.9452,8.78 -3.0171,9.3096 -0.1117,0.4386 -0.4007,0.868 -0.8671,1.2883 -0.2099,0.1891 -0.4302,0.3665 -0.6611,0.5323 -0.2309,0.1658 -0.4512,0.3432 -0.6611,0.5324 -0.3964,0.3571 -0.6779,0.7481 -0.8444,1.1727 -0.1665,0.4247 -0.1539,0.9309 0.0379,1.5186 0.3017,1.0378 0.8099,1.953 1.5245,2.7456 z"
             style="fill:#924a76;fill-opacity:1;fill-rule:evenodd;stroke:none"
             id="path3126" />
          <path
             d="m 372.1488,408.9205 c -1.3683,-0.5518 -2.3596,-1.4085 -2.9741,-2.57 -0.6145,-1.1615 -0.9693,-2.4214 -1.0645,-3.7795 -0.0951,-1.3581 -0.1162,-3.1094 -0.0632,-5.2539 0.0453,-1.5384 0.0589,-2.7257 0.041,-3.5621 -0.018,-0.8363 -0.1133,-1.6277 -0.286,-2.3741 0.4953,-1.8984 0.9484,-3.3569 1.3594,-4.3756 0.1997,-0.4948 0.4466,-1.1905 0.7407,-2.0871 l 0.7666,-2.0258 c 0.4463,-1.1059 0.9664,-2.0383 1.5603,-2.7971 0.5939,-0.7587 1.3607,-1.3378 2.3004,-1.7372 1.4187,-0.7476 2.8122,-0.8455 4.1804,-0.2937 1.281,0.5166 2.4071,1.6476 3.3784,3.3929 0.9713,1.7454 1.738,3.662 2.3003,5.75 0.5622,2.088 0.8906,3.8955 0.9852,5.4227 0.0738,2.6693 0.009,5.0541 -0.1958,7.1544 -0.2044,2.1003 -0.6295,3.9508 -1.2754,5.5515 -0.552,1.3679 -1.5519,2.4198 -2.9997,3.1557 -1.4478,0.7358 -3.2065,1.1095 -5.2759,1.1209 -1.358,-0.0739 -2.5174,-0.3046 -3.4781,-0.692 z m -3.9939,5.242 c 3.377,1.3619 6.8829,1.5237 10.5176,0.4854 1.5342,-0.3627 3.0354,-0.9163 4.5036,-1.6609 1.4683,-0.7445 2.7489,-1.5902 3.8417,-2.5369 0.906,-0.819 1.6114,-1.8543 2.1164,-3.1058 0.1997,-0.4948 0.3835,-1.0551 0.5514,-1.6811 0.168,-0.626 0.2962,-1.0904 0.3845,-1.3932 0.8546,-3.2085 1.1153,-6.6228 0.782,-10.2428 -0.3333,-3.62 -1.2121,-7.1047 -2.6362,-10.4539 -1.4242,-3.3493 -3.3103,-6.225 -5.6583,-8.6271 -2.1621,-2.1917 -4.5241,-3.8042 -7.0859,-4.8374 -2.5037,-1.0097 -5.0005,-1.3652 -7.4905,-1.0665 -2.49,0.2986 -4.7531,1.2725 -6.7895,2.9216 -2.0363,1.6491 -3.6417,3.9289 -4.8161,6.8393 l -0.4144,1.1527 c -1.5971,3.9581 -2.3723,7.8925 -2.3255,11.803 0.0468,3.9106 0.9381,7.5949 2.6739,11.0529 1.7357,3.458 4.2699,6.4681 7.6026,9.0305 1.402,0.9715 2.8163,1.7449 4.2427,2.3202 z"
             style="fill:#924a76;fill-opacity:1;fill-rule:evenodd;stroke:none"
             id="path3128" />
          <path
             d="m 417.6825,448.8369 c -0.8723,-0.1085 -1.4889,-1.0629 -1.85,-2.863 -0.3611,-1.8001 -0.5594,-3.3191 -0.5951,-4.557 -0.0357,-1.2378 -0.062,-3.3125 -0.079,-6.2242 0.0232,-0.1868 0.0288,-0.7396 0.0166,-1.6582 -0.0121,-0.9187 0.0441,-1.3703 0.1687,-1.3548 0.3621,-0.113 0.847,0.2478 1.4549,1.0824 0.6078,0.8347 1.1982,1.8095 1.7711,2.9244 0.5729,1.115 0.9413,1.904 1.105,2.3671 0.4444,1.0041 0.8012,2.0763 1.0705,3.2167 0.2692,1.1404 0.3418,2.2089 0.2177,3.2055 -0.1125,0.9031 -0.4139,1.6721 -0.9041,2.3068 -0.9301,1.1176 -1.7221,1.6358 -2.3763,1.5543 z m -2.8118,6.5761 c 0.9968,0.124 1.8923,0.109 2.6866,-0.0452 0.7942,-0.1542 1.5611,-0.4066 2.3007,-0.7573 0.7397,-0.3507 1.9405,-0.9761 3.6027,-1.8761 1.4947,-0.826 2.3953,-2.4691 2.7016,-4.9294 0.1823,-1.4637 0.128,-2.9964 -0.1629,-4.598 -0.2909,-1.6017 -0.7364,-2.9142 -1.3365,-3.9377 l -1.4848,-2.5567 c -1.1925,-2.1092 -2.269,-3.8165 -3.2294,-5.122 -0.9605,-1.3055 -2.1847,-2.5884 -3.6727,-3.8489 -1.0284,-0.887 -1.2498,-3.6818 -0.6642,-8.3843 0.2016,-1.6194 0.6694,-4.36 1.4034,-8.2219 0.0893,-0.4632 0.1748,-0.8954 0.2563,-1.2963 0.0816,-0.401 0.1418,-0.7572 0.1806,-1.0686 0.3456,-1.7597 0.7414,-4.4302 1.1874,-8.0116 0.3257,-2.616 0.6274,-4.7843 0.9049,-6.505 0.2775,-1.7207 0.632,-3.4239 1.0633,-5.1096 0.3924,-1.6273 1.0575,-3.0941 1.9952,-4.4006 0.9378,-1.3064 1.9206,-1.8957 2.9486,-1.7677 1.028,0.1279 1.9493,0.9858 2.7638,2.5735 0.7249,1.292 1.3496,2.6901 1.874,4.1943 0.5245,1.5043 1.167,3.5213 1.9275,6.0511 0.6553,2.3586 1.254,4.2832 1.7959,5.7738 0.7603,2.0237 1.3585,3.0627 1.7946,3.117 0.2804,0.0349 0.471,-0.3525 0.5718,-1.1622 0.1009,-0.8097 0.1062,-1.8685 0.0159,-3.1764 -0.0902,-1.3078 -0.2387,-2.4016 -0.4455,-3.2812 -0.2379,-0.8835 -0.5834,-2.5552 -1.0363,-5.0151 -0.3787,-2.0395 -0.7124,-3.6781 -1.0012,-4.9158 -0.2887,-1.2377 -0.7079,-2.4442 -1.2575,-3.6195 -0.8069,-1.9031 -2.0763,-3.84 -3.808,-5.8107 -1.7317,-1.9708 -3.7193,-3.665 -5.9628,-5.0827 -2.2434,-1.4177 -4.471,-2.2642 -6.6828,-2.5395 -3.5512,-0.442 -6.5623,0.7487 -9.0334,3.5721 -2.0702,2.3989 -3.6759,5.1956 -4.8171,8.39 -1.1412,3.1945 -1.9522,6.7225 -2.433,10.5842 -0.2909,2.3357 -0.4834,4.7074 -0.5776,7.115 -0.0942,2.4076 -0.1483,5.1919 -0.1622,8.3526 0.004,0.728 0.0124,1.4247 0.0244,2.0904 0.012,0.6656 0.0142,1.2826 0.007,1.8509 0.0297,4.8424 0.1341,9.022 0.313,12.5389 0.1789,3.5168 0.5808,7.0852 1.2056,10.705 0.6248,3.6198 1.5822,6.7275 2.8724,9.3232 0.1558,0.2724 0.6849,1.295 1.5872,3.0676 0.9023,1.7726 1.9611,3.3038 3.1766,4.5936 1.2155,1.2898 2.4774,2.1426 3.7859,2.5584 1.1644,0.3031 2.1048,0.4992 2.8213,0.5884 z"
             style="fill:#924a76;fill-opacity:1;fill-rule:evenodd;stroke:none"
             id="path3130" />
          <path
             d="m 463.3267,447.3793 c -0.8749,0.0846 -1.6853,-0.7119 -2.4312,-2.3896 -0.7459,-1.6777 -1.2716,-3.1166 -1.577,-4.3167 -0.3055,-1.2001 -0.7848,-3.2189 -1.438,-6.0565 -0.0182,-0.1874 -0.1336,-0.728 -0.3463,-1.6218 -0.2127,-0.8938 -0.2566,-1.3467 -0.1316,-1.3588 0.3286,-0.1894 0.8807,0.0567 1.6563,0.7383 0.7756,0.6817 1.5649,1.5039 2.3677,2.4667 0.8029,0.9628 1.3348,1.6522 1.5959,2.0684 0.6532,0.8827 1.2357,1.851 1.7478,2.905 0.5121,1.054 0.8165,2.0808 0.9133,3.0803 0.0877,0.9059 -0.0383,1.7221 -0.3779,2.4487 -0.6632,1.2938 -1.3228,1.9725 -1.979,2.036 z m -1.306,7.0314 c 0.9998,-0.0968 1.8704,-0.3071 2.6117,-0.6311 0.7413,-0.324 1.4345,-0.7379 2.0796,-1.2418 0.645,-0.5038 1.6801,-1.3765 3.1053,-2.6179 1.278,-1.1327 1.7976,-2.9329 1.5586,-5.4006 -0.1422,-1.4681 -0.5303,-2.9519 -1.1643,-4.4513 -0.634,-1.4993 -1.3557,-2.6828 -2.1651,-3.5503 l -2.0079,-2.1705 c -1.6248,-1.7976 -3.0486,-3.2284 -4.2712,-4.2924 -1.2227,-1.0641 -2.6978,-2.0485 -4.4254,-2.9533 -1.1974,-0.6408 -2.0245,-3.3197 -2.4812,-8.0365 -0.1573,-1.6243 -0.3,-4.4009 -0.4282,-8.3297 -0.0141,-0.4716 -0.0252,-0.9119 -0.0333,-1.321 -0.008,-0.4091 -0.0272,-0.7699 -0.0575,-1.0822 -0.0474,-1.7926 -0.245,-4.4851 -0.5929,-8.0774 -0.2541,-2.6239 -0.4338,-4.8057 -0.5392,-6.5454 -0.1053,-1.7397 -0.1319,-3.4791 -0.0795,-5.2184 0.0272,-1.6737 0.3554,-3.2504 0.9848,-4.7302 0.6294,-1.4797 1.4597,-2.2695 2.4908,-2.3693 1.0311,-0.0998 2.1177,0.536 3.2597,1.9074 0.9898,1.1023 1.905,2.3301 2.7457,3.6834 0.8406,1.3532 1.9086,3.1811 3.2039,5.4835 1.1551,2.1584 2.1601,3.9056 3.0148,5.2417 1.1844,1.8087 1.9953,2.6919 2.4327,2.6496 0.2812,-0.0272 0.3825,-0.4469 0.3039,-1.2591 -0.0787,-0.8122 -0.305,-1.8465 -0.6789,-3.103 -0.374,-1.2566 -0.7581,-2.2914 -1.1522,-3.1046 -0.4254,-0.8101 -1.128,-2.3659 -2.1077,-4.6673 -0.8155,-1.9075 -1.4994,-3.4336 -2.0518,-4.5782 -0.5524,-1.1447 -1.2252,-2.2304 -2.0185,-3.2572 -1.2035,-1.6807 -2.8656,-3.2934 -4.9863,-4.8381 -2.1208,-1.5447 -4.4307,-2.7636 -6.9299,-3.6568 -2.4992,-0.8932 -4.858,-1.2325 -7.0764,-1.0178 -3.562,0.3448 -6.24,2.1647 -8.034,5.4598 -1.4957,2.7932 -2.4511,5.8731 -2.8663,9.2397 -0.4151,3.3666 -0.4352,6.9866 -0.0601,10.86 0.2269,2.3428 0.5575,4.6991 0.992,7.0691 0.4345,2.37 0.9905,5.0987 1.6679,8.1861 0.1633,0.7094 0.3236,1.3875 0.4809,2.0345 0.1572,0.6469 0.2943,1.2484 0.4112,1.8046 1.0877,4.7188 2.1034,8.7746 3.0469,12.1673 0.9435,3.3928 2.1158,6.787 3.517,10.1827 1.4011,3.3958 3.0148,6.2192 4.8413,8.4702 0.2117,0.2318 0.9515,1.1139 2.2195,2.6465 1.268,1.5326 2.6361,2.7954 4.1041,3.7884 1.4681,0.993 2.886,1.5494 4.2538,1.6693 1.2025,0.0413 2.163,0.0272 2.8817,-0.0424 z"
             style="fill:#924a76;fill-opacity:1;fill-rule:evenodd;stroke:none"
             id="path3132" />
          <path
             d="m 484.8481,366.2069 -0.0706,-0.1746 c -0.1528,-0.3783 -0.4,-0.6339 -0.7415,-0.7667 -0.3415,-0.1329 -0.6286,-0.1523 -0.8615,-0.0582 -0.1746,0.0705 -0.2325,0.1785 -0.1737,0.324 0.1176,0.291 0.5906,0.54 1.4191,0.7469 -4.574,-1.0972 -9.1313,-4.0798 -13.6717,-8.9476 -0.4154,-0.4415 -1.247,-1.5357 -2.4947,-3.2826 -1.2478,-1.7469 -2.1009,-3.1877 -2.5596,-4.3225 -0.4703,-1.1639 -0.4259,-1.8081 0.1332,-1.9324 1.4732,-0.4597 4.6311,0.7357 9.4735,3.5861 0.6773,0.3357 1.2999,0.8289 1.8676,1.4796 0.5677,0.6507 1.092,1.4036 1.573,2.2586 0.481,0.855 0.9239,1.6577 1.3287,2.4081 l 1.4244,2.2678 c 1.4239,2.0989 2.4004,3.803 2.9296,5.1124 0.1058,0.2619 0.2472,0.6956 0.4242,1.3011 z m -0.521,58.9027 c 1.6882,-0.6819 3.5722,-2.8476 5.6523,-6.4972 0.9384,-1.6991 1.3671,-3.3193 1.2859,-4.8604 -0.0811,-1.5412 -0.4862,-3.2138 -1.2153,-5.0178 -0.4704,-1.164 -0.8378,-2.031 -1.1021,-2.6012 l -1.1549,-2.7321 c -0.3293,-0.8148 -0.758,-1.7078 -1.286,-2.6792 -0.528,-0.9714 -0.8653,-1.5967 -1.012,-1.876 -1.2084,-2.152 -2.036,-3.7809 -2.4828,-4.8866 -1.0231,-2.5315 -1.2964,-4.8413 -0.8198,-6.9293 0.3334,-1.3532 0.9221,-2.2002 1.7662,-2.5412 1.4552,-0.5878 3.4526,0.0609 5.992,1.9461 2.5394,1.8852 4.9999,4.1407 7.3816,6.7665 2.3816,2.6259 3.8628,4.4478 4.4434,5.4656 0.135,0.2501 0.2993,0.573 0.493,0.9686 0.1938,0.3956 0.3377,0.7098 0.4318,0.9426 0.64,1.3323 1.2004,2.3837 1.681,3.1542 0.4807,0.7705 1.1212,1.3919 1.9214,1.8641 0.8003,0.4721 1.7655,0.5984 2.8956,0.3789 0.5592,-0.1243 1.1008,-0.2923 1.6247,-0.5039 0.8731,-0.3527 1.807,-0.8484 2.8016,-1.4871 0.5815,-0.4041 0.9182,-0.8278 1.0099,-1.271 0.0917,-0.4433 0.0751,-1.0289 -0.0498,-1.7569 -0.1485,-0.7862 -0.2147,-1.3688 -0.1985,-1.7476 0.4598,-5.2291 -0.5098,-10.8116 -2.9088,-16.7476 -1.0113,-2.5024 -2.1637,-4.914 -3.4571,-7.2348 -1.2934,-2.3207 -3.0454,-5.3363 -5.256,-9.0467 l -0.7298,-1.1776 c -3.5768,-6.0018 -7.5499,-11.1412 -11.9192,-15.4181 -4.3694,-4.277 -9.2547,-6.8985 -14.656,-7.8646 -0.2217,-0.0459 -1.1332,-0.2277 -2.7344,-0.5456 -1.6013,-0.3179 -3.1699,-0.4712 -4.7059,-0.4601 -1.536,0.0112 -2.8133,0.2225 -3.832,0.634 -1.0187,0.4115 -1.7919,1.0115 -2.3197,1.8001 -1.4264,2.167 -1.5223,4.7782 -0.2875,7.8335 0.341,0.8438 0.7475,1.6612 1.2196,2.4521 0.472,0.791 1.0596,1.7213 1.7628,2.7912 2.7424,4.1049 7.0166,7.811 12.8224,11.1185 1.0866,0.678 2.6831,1.3194 4.7896,1.924 1.3307,0.4441 2.3842,0.8309 3.1606,1.1604 0.7765,0.3294 1.5301,0.812 2.261,1.4476 0.7309,0.6356 1.3226,1.4713 1.775,2.507 0.3819,0.8612 0.9545,2.0685 1.7177,3.6218 0.7985,1.6407 1.3828,2.877 1.7529,3.7091 0.135,0.2501 0.2848,0.5789 0.4494,0.9862 0.2822,0.6984 0.3069,1.0946 0.0741,1.1886 -0.2329,0.0941 -0.7728,-0.1109 -1.6198,-0.615 -2.2141,-1.3735 -4.5315,-2.2906 -6.9523,-2.7513 -2.4207,-0.4607 -4.708,-0.2561 -6.8619,0.6139 -1.106,0.4468 -2.0745,1.0242 -2.9057,1.7322 -3.4818,2.8619 -5.2157,6.7186 -5.2018,11.5701 0.014,4.8516 1.0032,9.7915 2.9677,14.8198 0.9643,2.386 2.0724,4.6463 3.3244,6.7807 1.252,2.1344 2.9211,4.7773 5.0073,7.9287 0.8846,1.2674 1.9527,1.6483 3.2042,1.1428 z"
             style="fill:#924a76;fill-opacity:1;fill-rule:evenodd;stroke:none"
             id="path3134" />
          <path
             d="m 559.5434,419.4695 c 0.4546,-0.3355 0.5986,-0.6954 0.432,-1.0795 -0.0613,-0.1888 -0.2039,-0.4347 -0.4276,-0.7377 -0.1864,-0.2524 -0.4244,-0.5351 -0.714,-0.8481 -0.2895,-0.3129 -0.5056,-0.5923 -0.6481,-0.8381 -0.8684,-1.3876 -1.545,-2.4096 -2.0297,-3.066 -0.7884,-1.1735 -2.2982,-2.8484 -4.5293,-5.0246 -1.1595,-1.0947 -1.9756,-1.9358 -2.4482,-2.5231 -0.7404,-0.897 -1.413,-1.6098 -2.018,-2.1385 -0.605,-0.5287 -1.2866,-0.8839 -2.0449,-1.0654 -0.451,-0.1352 -0.8281,-0.091 -1.1312,0.1326 -0.1768,0.1305 -0.291,0.2928 -0.3427,0.487 -0.0704,0.1689 -0.1493,0.432 -0.2368,0.7891 -0.0875,0.3571 -0.1438,0.545 -0.1691,0.5636 2.7592,3.7369 5.8323,8.2953 9.2193,13.6752 0.397,0.6433 0.6793,1.0785 0.8471,1.3058 0.4288,0.5807 0.8887,0.9922 1.3797,1.2345 0.491,0.2422 1.1388,0.3005 1.9435,0.1748 1.3139,-0.2285 2.2866,-0.5757 2.918,-1.0416 z"
             style="fill:#924a76;fill-opacity:1;fill-rule:evenodd;stroke:none"
             id="path3136" />
          <path
             d="m 568.2958,381.6358 c 0.5879,-0.7354 0.8781,-1.4879 0.8704,-2.2574 -0.008,-0.7695 -0.3548,-1.4285 -1.0414,-1.9772 -0.4414,-0.3527 -1.1009,-0.6587 -1.9786,-0.9181 -0.8973,-0.2349 -1.6402,-0.5874 -2.2287,-1.0577 -0.662,-0.529 -1.068,-1.1648 -1.2179,-1.9073 -0.1498,-0.7424 -0.2005,-1.7974 -0.1521,-3.1649 l -0.008,-2.1761 c -0.2616,-3.9454 -0.8196,-7.6455 -1.6742,-11.1005 -0.8545,-3.455 -2.1257,-6.7407 -3.8136,-9.8572 -0.8782,-1.666 -1.754,-3.109 -2.6272,-4.3291 -0.8732,-1.22 -1.9572,-2.5281 -3.2521,-3.9244 l -0.2648,-0.2719 c -0.6621,-0.5291 -1.72,-1.0028 -3.1738,-1.4212 -1.4538,-0.4184 -3.1417,-0.8331 -5.0637,-1.2439 l -0.9928,-0.1907 c -4.2068,-0.8706 -8.1288,-0.891 -11.7662,-0.0611 -1.1618,0.1966 -2.1385,0.5009 -2.9301,0.9129 -0.7916,0.4121 -1.6112,1.0226 -2.459,1.8317 -0.1226,0.103 -0.4828,0.3776 -1.0807,0.8239 -1.2595,0.922 -2.0755,1.6158 -2.4479,2.0816 -0.196,0.2452 -0.316,0.4707 -0.36,0.6765 -0.5873,2.3431 -0.8463,4.3257 -0.777,5.948 0.0694,1.6223 0.6682,3.286 1.7966,4.9911 0.5788,0.784 1.4764,1.8226 2.6928,3.116 0.4267,0.4213 0.9686,0.6735 1.6255,0.7566 0.657,0.083 1.0933,-0.0103 1.3089,-0.28 0.2156,-0.2696 0.0439,-0.6078 -0.5152,-1.0143 -0.4463,-0.3968 -0.9406,-1.1734 -1.4828,-2.3299 -0.5423,-1.1564 -0.9178,-2.3203 -1.1267,-3.4916 -0.2088,-1.1713 -0.0781,-2.0511 0.3923,-2.6395 0.2156,-0.2697 0.4533,-0.4413 0.7131,-0.5149 1.2646,-0.476 2.641,-0.5514 4.1291,-0.2261 1.488,0.3253 2.7838,0.9288 3.8873,1.8106 0.2207,0.1763 0.5076,0.4457 0.8607,0.8083 3.1442,3.7578 6.1095,7.6138 8.8958,11.5679 l 1.7954,2.2783 c 1.8934,2.3566 3.3736,4.3128 4.4406,5.8685 1.0669,1.5556 1.5148,2.6668 1.3435,3.3334 -4.0065,-2.4782 -8.3191,-4.2972 -12.9378,-5.4567 -4.6187,-1.1596 -8.8082,-1.7251 -12.5684,-1.6965 -3.7603,0.0286 -6.3609,0.4917 -7.8018,1.3892 -2.6767,0.2316 -4.3482,0.7641 -5.0146,1.5976 -0.3724,0.4657 -0.4237,0.9571 -0.1538,1.4741 0.2699,0.5169 0.601,0.9322 0.9933,1.2457 0.1717,0.1371 0.7562,0.0217 1.7537,-0.3463 0.9976,-0.3681 2.702,-1.2559 5.1135,-2.6636 1.4654,-0.878 4.3899,-0.791 8.7732,0.2608 4.3833,1.0519 8.9274,2.4431 13.6321,4.1736 4.7048,1.7305 8.2365,3.1565 10.5951,4.2778 0.5641,0.6516 1.2386,1.6928 2.0237,3.1236 0.6083,1.0486 1.1529,1.9257 1.6337,2.6313 0.4807,0.7056 1.0153,1.2935 1.6039,1.7637 0.8582,0.6858 2.0448,1.1117 3.5598,1.2777 0.907,0.1221 1.5284,0.1366 1.8642,0.0433 0.3358,-0.0933 0.6629,-0.314 0.9814,-0.6621 0.5195,-0.5492 1.0635,-0.9783 1.632,-1.2873 0.8235,-0.4267 1.49,-0.9588 1.9996,-1.5962 z"
             style="fill:#924a76;fill-opacity:1;fill-rule:evenodd;stroke:none"
             id="path3138" />
          <path
             d="m 260.9123,310.8104 c 0.8603,0.007 1.6372,-0.1054 2.3305,-0.3361 l 1.4964,-0.469 c 1.488,-0.4607 2.5795,-0.9034 3.2744,-1.328 0.695,-0.4247 1.2446,-1.1414 1.6487,-2.1501 0.4043,-1.0087 0.6142,-2.5249 0.6298,-4.5485 0.0174,-2.2427 -0.4968,-3.3682 -1.5424,-3.3763 -0.4219,-0.003 -0.781,0.0994 -1.0779,0.3079 -0.2969,0.2085 -0.4536,0.3127 -0.4705,0.3125 -0.4553,-0.0204 -0.6855,0.2898 -0.6904,0.9306 -0.004,0.5734 0.1902,1.5699 0.584,2.9895 0.0329,0.1015 0.1233,0.4437 0.2705,1.0266 0.1472,0.583 0.2197,1.0431 0.217,1.3803 -0.001,0.1687 -0.0276,0.3034 -0.0791,0.4042 -0.5981,0.9903 -1.3777,1.4818 -2.3393,1.4743 -0.8265,-0.006 -1.7054,-0.342 -2.6363,-1.0069 -0.9311,-0.6649 -1.7641,-1.4514 -2.4995,-2.3593 -0.7351,-0.9079 -1.2182,-1.6832 -1.4494,-2.3258 -0.5122,-1.3868 -1.023,-2.9507 -1.5325,-4.6917 l -0.6423,-2.0033 c -0.1978,-0.6087 -0.3943,-1.3733 -0.5896,-2.2939 -0.1954,-0.9206 -0.2906,-1.6844 -0.2859,-2.2915 0.002,-0.2867 0.0293,-0.5226 0.0815,-0.7077 0.0515,-0.1176 0.0781,-0.2861 0.0798,-0.5053 0.004,-0.4553 -0.125,-1.2826 -0.3857,-2.482 -0.1794,-0.794 -0.2354,-1.1992 -0.1677,-1.2155 0.0339,-0.0335 0.0678,-0.0501 0.1015,-0.0498 -0.1843,-0.1364 -0.2741,-0.5249 -0.2692,-1.1657 0.005,-0.6071 0.1223,-1.6349 0.3527,-3.0834 0.0887,-0.5559 0.1245,-0.8338 0.1077,-0.834 0.0674,0.0174 0.0476,0.4051 -0.0596,1.1632 -0.1067,0.7075 -0.1611,1.2045 -0.1633,1.4912 -0.002,0.3204 0.0469,0.4726 0.1482,0.4565 -0.0337,-3e-4 -0.0501,-0.0679 -0.0488,-0.2028 0.004,-0.5733 0.2461,-1.8278 0.7248,-3.7635 0.479,-1.9357 0.8465,-3.1133 1.1028,-3.5329 0.7351,-1.276 1.582,-2.2687 2.5408,-2.978 0.9585,-0.7093 1.9775,-1.0597 3.0571,-1.0514 1.2312,0.01 2.459,0.4997 3.6829,1.4704 1.5258,1.1923 2.8676,2.7078 4.0258,4.5465 1.1582,1.8388 2.0501,3.7387 2.6761,5.6998 0.1318,0.4057 0.3313,0.774 0.5986,1.105 0.2673,0.3309 0.5022,0.4971 0.7046,0.4987 0.2192,0.002 0.3306,-0.2167 0.334,-0.6551 10e-4,-0.1518 -0.006,-0.2699 -0.0225,-0.3543 -0.1709,-1.907 -0.5893,-3.4112 -1.2556,-4.5125 -1.5813,-2.7273 -3.2117,-5.1178 -4.8911,-7.1714 -1.6795,-2.0535 -3.6399,-3.7551 -5.8814,-5.1047 -2.2417,-1.3497 -4.737,-2.0351 -7.4865,-2.0564 -0.4217,-0.003 -0.7422,0.003 -0.9617,0.0179 -2.4299,0.1329 -4.3645,1.0497 -5.803,2.7503 -1.4385,1.7006 -2.4458,3.7881 -3.0215,6.2627 -0.5759,2.4746 -0.8745,5.0862 -0.8957,7.8349 -0.0122,1.5851 0.0603,3.1119 0.2175,4.5803 l 0.0935,0.9873 c 0.3623,3.325 0.7503,6.0473 1.1641,8.167 0.4136,2.1196 1.1438,4.2165 2.1904,6.2904 1.0469,2.074 2.5425,3.8774 4.4876,5.4102 1.0564,0.8008 2.3371,1.5063 3.8422,2.1167 1.5049,0.6103 2.9659,0.9209 4.3829,0.9319 z"
             style="fill:#3b2b1c;fill-opacity:1;fill-rule:evenodd;stroke:none"
             id="path3140" />
          <path
             d="m 286.9828,288.9356 c -0.7927,-0.005 -1.4575,-0.2371 -1.9944,-0.6959 -0.5368,-0.4588 -0.9634,-1.0181 -1.2795,-1.6778 -0.3164,-0.6597 -0.6734,-1.5305 -1.0713,-2.6124 -0.2817,-0.7776 -0.5098,-1.3735 -0.6843,-1.7878 -0.1743,-0.4143 -0.3784,-0.7908 -0.6126,-1.1296 -0.1282,-1.0464 -0.1904,-1.8647 -0.1865,-2.4549 0.002,-0.2867 -0.0125,-0.6831 -0.043,-1.1892 l -0.0175,-1.1638 c 0.004,-0.6408 0.0793,-1.2094 0.226,-1.706 0.1465,-0.4965 0.4151,-0.9375 0.8054,-1.3228 0.5611,-0.6541 1.2378,-0.9785 2.0306,-0.9734 0.7421,0.005 1.5285,0.3471 2.3593,1.0271 0.8306,0.6799 1.5928,1.4859 2.2869,2.4179 0.6941,0.932 1.2156,1.7701 1.5652,2.5144 0.5649,1.319 1.0041,2.5234 1.3176,3.6132 0.3135,1.0897 0.4671,2.0984 0.4612,3.0258 -0.005,0.7926 -0.2966,1.5159 -0.8743,2.1698 -0.5779,0.654 -1.3825,1.1884 -2.4143,1.6034 -0.6931,0.2316 -1.3178,0.3456 -1.8745,0.342 z m -0.9582,3.4088 c 1.9565,0.0126 3.7402,-0.5998 5.3508,-1.8373 0.6946,-0.4846 1.3352,-1.0581 1.9214,-1.7204 0.5862,-0.6623 1.0588,-1.3381 1.4175,-2.0272 0.2905,-0.5883 0.4382,-1.2451 0.4428,-1.9702 0.002,-0.2867 -0.0171,-0.603 -0.0571,-0.9489 -0.04,-0.346 -0.0679,-0.6034 -0.0835,-0.7721 -0.208,-1.7721 -0.7532,-3.5295 -1.636,-5.2722 -0.8828,-1.7427 -2.0112,-3.3099 -3.3855,-4.7016 -1.3743,-1.3917 -2.8855,-2.4555 -4.5337,-3.1913 -1.5139,-0.6675 -3.0132,-1.006 -4.4975,-1.0156 -1.4505,-0.009 -2.7683,0.3067 -3.9534,0.9483 -1.1848,0.6416 -2.1228,1.5757 -2.814,2.8023 -0.6911,1.2266 -1.0422,2.6831 -1.0529,4.3694 l 0.021,0.6578 c -0.0149,2.2934 0.3762,4.4124 1.1733,6.3569 0.7971,1.9445 1.9714,3.609 3.5227,4.9934 1.5515,1.3845 3.4131,2.3873 5.5852,3.0084 0.8926,0.2082 1.7522,0.3149 2.5789,0.3203 z"
             style="fill:#3b2b1c;fill-opacity:1;fill-rule:evenodd;stroke:none"
             id="path3142" />
          <path
             d="m 302.8131,289.8443 c 0.8435,0.004 1.7779,-0.4631 2.8033,-1.4022 1.0251,-0.9392 1.9116,-1.9043 2.6589,-2.8954 0.7981,-1.0753 1.2009,-2.3211 1.2082,-3.7376 0.004,-0.6746 -0.0844,-1.6194 -0.2639,-2.8345 l -0.122,-0.8354 c -0.0816,-0.5569 -0.139,-0.8945 -0.1722,-1.0127 -0.0163,-0.1013 -0.0776,-0.4768 -0.1838,-1.1266 -0.1064,-0.6498 -0.1582,-1.2614 -0.1553,-1.8348 0.006,-1.1298 0.2549,-1.9802 0.7469,-2.551 0.1018,-0.1007 0.2116,-0.1507 0.3298,-0.1501 0.3711,0.002 0.8457,0.3795 1.4238,1.1329 0.5781,0.7534 1.1179,1.5699 1.6194,2.4494 0.5017,0.8794 0.8525,1.5221 1.053,1.9278 l 1.8069,2.893 c 0.2172,0.3889 0.3964,0.7946 0.5378,1.2169 0.1411,0.4223 0.2285,0.6757 0.2617,0.7602 0.199,0.6587 0.4407,1.2671 0.7244,1.825 0.468,0.8625 1.1743,1.2961 2.1189,1.3009 0.5061,0.003 1.0337,-0.1169 1.5832,-0.3587 0.5496,-0.2417 1.0445,-0.5469 1.4849,-0.9157 0.9656,-0.7876 1.616,-1.7835 1.9509,-2.9876 0.3352,-1.204 0.5066,-2.5733 0.5144,-4.1079 l 0.0462,-4.0724 c 0.0119,-2.3271 -0.008,-3.4908 -0.0581,-3.4911 1.3999,0.024 2.5871,0.4517 3.5612,1.283 0.9739,0.8313 1.8201,1.9571 2.5381,3.3773 0.0169,0.017 0.1665,0.452 0.449,1.305 0.2822,0.8531 0.6572,1.7319 1.125,2.6366 0.4678,0.9046 0.8533,1.3576 1.157,1.3592 0.135,7e-4 0.2534,-0.0915 0.3557,-0.2764 0.1362,-0.2523 0.2053,-0.5808 0.2075,-0.9855 0.003,-0.624 -0.1535,-1.3415 -0.4697,-2.1526 -0.3164,-0.811 -0.6921,-1.5803 -1.127,-2.3076 -0.4348,-0.7274 -0.8283,-1.2775 -1.1806,-1.6503 l -0.7551,-0.788 c -0.9563,-1.0336 -1.804,-1.8643 -2.543,-2.492 -0.739,-0.6277 -1.5125,-1.1039 -2.3203,-1.4284 -1.4649,-0.564 -2.7368,-0.8488 -3.8164,-0.8543 -1.3665,-0.007 -2.6844,0.4416 -3.9541,1.3458 -0.5249,0.3683 -1.0035,0.7917 -1.4361,1.2701 -0.4326,0.4784 -0.7683,0.9784 -1.0073,1.4999 -0.1204,0.4885 -0.2717,1.2255 -0.4541,2.2111 -0.1821,0.9856 -0.2478,1.4785 -0.1973,1.4788 -0.0673,-4e-4 -0.4109,-0.4827 -1.03,-1.4471 -0.134,-0.1862 -0.3433,-0.4866 -0.6279,-0.9013 -0.2847,-0.4146 -0.469,-0.6558 -0.553,-0.7237 -0.7388,-0.6783 -1.3811,-1.2213 -1.9272,-1.6288 -0.5462,-0.4075 -1.1519,-0.731 -1.8169,-0.9705 -0.6651,-0.2395 -1.4195,-0.353 -2.2627,-0.3404 -1.586,0.0593 -2.9886,0.5159 -4.2073,1.3697 -1.219,0.8539 -2.1482,1.9706 -2.7879,3.3501 -0.6396,1.3796 -0.9296,2.8537 -0.8703,4.4223 -0.004,0.7926 0.0344,1.539 0.1152,2.2393 0.0808,0.7003 0.219,1.717 0.4146,3.0503 l 0.1225,0.7595 0.0979,0.6582 c 0.1465,1.0463 0.3103,1.962 0.492,2.7471 0.1816,0.7851 0.4687,1.5075 0.8618,2.1672 0.3931,0.6597 0.9182,1.0586 1.5754,1.1969 0.0674,0.0172 0.1853,0.0263 0.354,0.0271 z"
             style="fill:#3b2b1c;fill-opacity:1;fill-rule:evenodd;stroke:none"
             id="path3144" />
          <path
             d="m 333.246,297.7386 c 0.7422,0.003 1.6706,-0.2261 2.7856,-0.6859 1.115,-0.4599 2.0528,-0.8993 2.8133,-1.3182 1.1494,-0.6537 1.9494,-1.5236 2.4001,-2.6098 0.4507,-1.0861 0.6787,-2.3627 0.6839,-3.8299 0.002,-0.6745 -0.0289,-1.3998 -0.0936,-2.1757 -0.0649,-0.776 -0.1054,-1.2399 -0.1218,-1.3917 -0.1296,-1.4845 -0.1936,-2.5302 -0.1914,-3.1373 0.2022,0.085 0.4038,0.2839 0.6052,0.5965 0.2015,0.3127 0.4192,0.7056 0.6538,1.1786 0.2513,0.473 0.4021,0.7434 0.4527,0.811 0.688,1.0311 1.5107,2.0711 2.4687,3.12 l 0.4536,0.4822 c 0.6893,0.7275 1.2776,1.3029 1.7652,1.7262 0.4878,0.4233 1.0517,0.7752 1.6916,1.0557 0.6402,0.2805 1.3565,0.4221 2.1492,0.4248 1.4675,0.005 2.793,-0.3654 3.9763,-1.1118 1.1836,-0.7463 2.1148,-1.7422 2.7937,-2.9878 0.6792,-1.2455 1.0213,-2.5934 1.0264,-4.0437 0.005,-1.3153 -0.0559,-3.3223 -0.1814,-6.021 l -0.023,-0.7336 c 0.005,-1.2648 0.1775,-2.4657 0.5188,-3.6028 0.3414,-1.1371 0.9258,-1.8476 1.7532,-2.1314 0.1858,-0.0668 0.3884,-0.0998 0.6077,-0.0991 0.6072,0.002 1.1882,0.2909 1.7429,0.8662 0.5547,0.5753 1.054,1.2684 1.498,2.0794 0.4444,0.811 0.9847,1.8838 1.6209,3.2182 0.5693,1.1825 1.03,2.0989 1.3821,2.7494 0.352,0.6505 0.7297,1.1999 1.1328,1.6482 0.4033,0.4483 0.8074,0.6731 1.2121,0.6745 0.1687,6e-4 0.2537,-0.1424 0.2547,-0.4291 0.002,-0.7083 -0.4526,-2.0547 -1.365,-4.0394 -0.9124,-1.9847 -2.002,-3.9152 -3.269,-5.7915 -1.2671,-1.8762 -2.4224,-3.145 -3.4659,-3.8064 -1.6157,-1.0343 -3.2334,-1.5543 -4.8525,-1.5599 -1.7544,-0.006 -3.3084,0.5745 -4.6619,1.7418 -1.3535,1.1673 -2.2951,2.745 -2.8249,4.7331 -0.4788,1.8196 -0.7227,4.0279 -0.7317,6.6249 l 0.0203,1.4166 c -3e-4,0.118 0.0153,0.4638 0.0471,1.0373 0.0317,0.5734 0.0466,1.1637 0.0444,1.7708 -0.008,2.3778 -0.3162,3.5656 -0.9233,3.5635 -0.1856,-7e-4 -0.3792,-0.0941 -0.5811,-0.2803 -1.0088,-0.931 -1.8408,-1.7813 -2.4958,-2.5509 -0.6553,-0.7696 -1.2344,-1.6274 -1.7371,-2.5736 -0.1675,-0.321 -0.5615,-1.0222 -1.1819,-2.1036 -0.7375,-1.3011 -1.3032,-2.3528 -1.6968,-3.1552 -0.3938,-0.8024 -0.6482,-1.6001 -0.7634,-2.3931 -0.1152,-0.8267 -0.4668,-1.5953 -1.0547,-2.3056 -0.5879,-0.7103 -1.2986,-1.2735 -2.1321,-1.6896 -0.8337,-0.4161 -1.6552,-0.6255 -2.4648,-0.6283 -0.8435,-0.003 -1.5737,0.2264 -2.1912,0.688 -0.6171,0.4616 -1.0456,1.181 -1.2851,2.1583 -0.3936,1.5501 -0.5938,3.3201 -0.6006,5.31 -0.003,0.978 0.031,1.9647 0.1035,2.9599 0.0725,0.9952 0.1821,2.2182 0.3289,3.669 0.0161,0.2362 0.0688,0.8224 0.1582,1.7586 0.0896,0.9362 0.154,1.8007 0.1933,2.5935 0.0396,0.7927 0.0581,1.5179 0.0557,2.1756 -0.002,0.7083 -0.0645,1.5597 -0.1858,2.5542 -0.0696,0.5731 -0.1133,1.0114 -0.1311,1.3149 -0.0352,0.3709 -0.0527,0.5901 -0.053,0.6575 -7e-4,0.1855 0.0242,0.3289 0.0745,0.4303 0.05,0.1014 0.1426,0.2282 0.2768,0.3804 0.1514,0.1523 0.3277,0.3637 0.5293,0.6342 0.1846,0.2536 0.513,0.3812 0.9854,0.3829 z"
             style="fill:#3b2b1c;fill-opacity:1;fill-rule:evenodd;stroke:none"
             id="path3146" />
          <path
             d="m 372.7174,310.3348 c 0.3206,7e-4 0.637,-0.045 0.9492,-0.1371 0.3123,-0.0921 0.6963,-0.2304 1.1521,-0.4149 0.878,-0.3691 1.9419,-0.9739 3.1919,-1.8144 0.5913,-0.4035 1.0896,-0.7313 1.4952,-0.9833 0.4052,-0.2521 0.8273,-0.4705 1.2663,-0.655 0.1353,-0.0503 0.2371,-0.3199 0.3054,-0.8088 0.0686,-0.4889 0.1201,-0.9525 0.1548,-1.3909 0.0347,-0.4384 0.0523,-0.7166 0.0525,-0.8347 l 0.0264,-0.5564 c 0.1198,-0.7586 0.1801,-1.3403 0.1809,-1.745 0.001,-0.4891 -0.0735,-1.0626 -0.2239,-1.7206 -0.0503,-0.1687 -0.0752,-0.3206 -0.0749,-0.4555 9e-4,-0.5059 0.3305,-0.7581 0.9882,-0.7567 0.2024,4e-4 0.523,0.0348 0.9615,0.1032 0.4384,0.0684 0.7587,0.0944 0.9611,0.078 1.9568,0.004 3.6358,-0.2873 5.0372,-0.8745 0.5065,-0.2013 0.76,-0.479 0.7609,-0.8331 5e-4,-0.3204 -0.2053,-0.6624 -0.6179,-1.0258 -0.4123,-0.3635 -0.8882,-0.6681 -1.4275,-0.9137 -0.5393,-0.2457 -0.9607,-0.3689 -1.2644,-0.3695 -0.2024,-5e-4 -0.3037,0.0668 -0.3039,0.2017 l -0.1519,-4e-4 -1.4675,0.0222 c -2.3953,-0.005 -3.6011,-0.2101 -3.617,-0.6149 -0.0498,-0.4217 -0.0739,-0.9698 -0.0725,-1.6443 l 0.003,-1.5178 c 0.001,-0.6071 -0.006,-1.0202 -0.0227,-1.2395 -0.049,-0.7252 -0.0727,-1.4842 -0.071,-2.2767 l 0.0317,-2.9343 c 0.003,-1.4502 -0.062,-2.5971 -0.195,-3.4406 -0.0335,-0.1518 -0.0498,-0.4301 -0.0489,-0.8348 8e-4,-0.371 0.0359,-1.0118 0.1053,-1.9223 0.0698,-1.0116 0.1052,-1.7873 0.1062,-2.3269 0.003,-1.4165 -0.2141,-2.3614 -0.6516,-2.8345 -0.4375,-0.49 -0.7908,-0.9166 -1.0601,-1.2797 -0.269,-0.3632 -0.437,-0.7387 -0.5037,-1.1267 -0.0835,-0.2869 -0.1674,-0.5232 -0.2514,-0.7089 -0.1846,-0.4051 -0.2852,-0.7341 -0.3015,-0.9871 -0.0164,-0.1687 -0.0667,-0.2869 -0.1509,-0.3545 -0.0843,-0.0676 -0.1939,-0.1184 -0.3286,-0.1525 -0.0843,-0.0339 -0.1687,-0.0762 -0.253,-0.127 -0.0842,-0.0508 -0.1513,-0.1352 -0.2016,-0.2534 -0.1678,-0.5062 -0.4368,-0.8778 -0.8074,-1.1147 -0.3706,-0.2369 -0.8088,-0.3559 -1.3149,-0.357 -0.6748,-10e-4 -1.3709,0.1784 -2.0887,0.5394 -0.7177,0.361 -1.2541,0.7857 -1.6093,1.274 -0.6092,0.7912 -1.0621,1.5871 -1.3589,2.3875 -0.2969,0.8003 -0.4969,1.6052 -0.5999,2.4144 -0.1028,0.8092 -0.164,1.8041 -0.1836,2.9845 -5e-4,0.3035 0.0559,1.4757 0.1697,3.5164 0.2754,5.3295 0.4109,8.9471 0.4067,10.8526 -0.004,1.7033 -0.0981,2.5547 -0.2836,2.5543 -0.6917,0.0154 -1.451,0.1149 -2.2779,0.2986 -0.8271,0.1838 -1.553,0.4984 -2.1782,0.9439 -0.625,0.4456 -0.9045,1.0479 -0.8389,1.8069 0.0664,0.5397 0.2344,0.9111 0.5037,1.114 0.2695,0.203 0.6321,0.305 1.0874,0.3059 0.2532,6e-4 0.717,-0.049 1.3921,-0.1488 0.5906,-0.1167 1.0884,-0.1747 1.4931,-0.1738 0.6409,10e-4 1.1297,0.1795 1.4664,0.5343 0.2019,0.2197 0.3278,0.5362 0.3774,0.9494 0.0498,0.4133 0.074,0.9488 0.0725,1.6065 -10e-4,0.489 0.007,0.8263 0.0232,1.0118 l 0.2478,2.4036 c 0.1331,0.8941 0.2324,1.7881 0.2979,2.682 0.0163,0.2024 -0.0267,0.5733 -0.129,1.1127 -0.017,0.118 -0.0427,0.3077 -0.0771,0.569 -0.0342,0.2613 -0.0515,0.4847 -0.052,0.6702 -0.001,0.5059 0.1162,0.8772 0.3518,1.1138 0.4041,0.4056 0.8843,0.609 1.4409,0.6102 z"
             style="fill:#3b2b1c;fill-opacity:1;fill-rule:evenodd;stroke:none"
             id="path3148" />
          <path
             d="m 390.7941,298.078 c 0.3205,3e-4 0.7803,-0.2015 1.3796,-0.6056 0.5994,-0.404 1.1817,-0.8503 1.7473,-1.3387 0.5657,-0.4884 0.9246,-0.8168 1.0765,-0.9853 0.625,-0.6232 1.1992,-1.3013 1.7229,-2.0343 0.5239,-0.733 0.7861,-1.4115 0.7866,-2.0354 2e-4,-0.0843 -0.0166,-0.2108 -0.0501,-0.3795 -0.0337,-0.0844 -0.092,-0.6409 -0.1753,-1.6697 -0.0832,-1.0288 -0.1162,-1.5432 -0.0993,-1.5431 0.3037,-0.0334 0.6323,0.1524 0.9861,0.5576 0.3537,0.4051 0.8842,1.0887 1.5917,2.0507 0.7242,1.0295 1.3516,1.8439 1.8824,2.4431 0.5305,0.5993 1.0488,0.9582 1.5547,1.0768 0.2531,0.0509 0.5061,0.0765 0.759,0.0768 0.8772,0.001 1.7209,-0.289 2.5312,-0.8699 0.8103,-0.5808 1.469,-1.3221 1.9761,-2.2237 0.5071,-0.9017 0.7612,-1.7994 0.7622,-2.6931 3e-4,-0.3036 -0.0415,-0.624 -0.1255,-0.9614 -0.3862,-1.5688 -0.8781,-2.9353 -1.4756,-4.0995 -0.5974,-1.1643 -1.436,-1.747 -2.5156,-1.7483 -0.1855,-2e-4 -0.3879,0.0249 -0.6074,0.0752 -0.3879,0.1177 -0.7129,0.3534 -0.9749,0.7072 -0.2619,0.3539 -0.5617,0.8594 -0.8999,1.5167 -0.3044,0.6405 -0.541,1.0618 -0.7099,1.264 -0.1182,0.1348 -0.1775,0.3455 -0.1777,0.6322 -5e-4,0.4047 0.1337,1.0457 0.4025,1.9229 0.2017,0.7085 0.3023,1.1555 0.3023,1.341 -3e-4,0.1686 -0.0425,0.2613 -0.127,0.2781 -0.3374,0.1514 -0.8388,-0.1611 -1.5044,-0.9376 -0.6655,-0.7765 -1.3181,-1.6837 -1.9577,-2.7215 -0.6399,-1.0378 -1.0525,-1.7676 -1.2376,-2.1894 -0.4541,-1.0292 -0.6806,-2.2099 -0.6789,-3.5422 7e-4,-0.8094 0.0735,-1.6357 0.2177,-2.4787 0.1443,-0.843 0.3606,-1.8799 0.6487,-3.1106 0.2034,-0.8767 0.3474,-1.5258 0.4324,-1.9472 0.0339,-0.2024 0.051,-0.3541 0.051,-0.4553 10e-4,-0.7926 -0.3652,-1.3706 -1.0986,-1.734 -0.7334,-0.3634 -1.5723,-0.5456 -2.5169,-0.5467 -0.3713,-4e-4 -0.7002,0.0245 -0.987,0.0748 -1.3667,0.302 -2.4551,0.7856 -3.2656,1.4508 -0.8103,0.6652 -1.3975,1.571 -1.7615,2.7173 -0.364,1.1463 -0.5469,2.6132 -0.5491,4.4008 l 0.0242,1.0624 c -0.0171,0.2867 -0.0261,0.7083 -0.0266,1.2648 -0.002,1.7032 0.1057,3.3854 0.3232,5.0468 0.2173,1.6613 0.5354,3.6811 0.9546,6.0593 0.5029,2.7999 0.8379,4.9504 1.0049,6.4515 0.0334,0.253 0.1682,0.3796 0.4043,0.3799 z"
             style="fill:#3b2b1c;fill-opacity:1;fill-rule:evenodd;stroke:none"
             id="path3150" />
          <path
             d="m 425.9166,265.9003 v -0.1012 c 0,-0.2192 -0.0717,-0.3963 -0.2153,-0.5312 -0.1433,-0.1349 -0.2825,-0.2023 -0.4175,-0.2023 -0.101,0 -0.1516,0.0422 -0.1516,0.1265 0,0.1686 0.1856,0.3878 0.5567,0.6576 -2.0581,-1.4669 -3.7283,-3.8699 -5.0105,-7.2088 -0.1182,-0.3035 -0.3121,-1.016 -0.5821,-2.1374 -0.27,-1.1214 -0.405,-2.0109 -0.405,-2.6686 -2e-4,-0.6746 0.1516,-0.9866 0.4553,-0.936 0.8264,0.0674 2.1592,1.2983 3.9981,3.6928 0.2697,0.3035 0.4807,0.6745 0.6325,1.113 0.1519,0.4384 0.2615,0.919 0.3291,1.4418 0.0677,0.5228 0.1265,1.0118 0.1773,1.4671 l 0.2532,1.4165 c 0.2868,1.3322 0.4301,2.3778 0.4304,3.1366 0,0.1518 -0.0169,0.3963 -0.0506,0.7336 z m -12.1176,29.2425 c 0.9785,-1e-4 2.3532,-0.7 4.1242,-2.0998 0.8096,-0.6578 1.3494,-1.3788 1.6192,-2.1629 0.2697,-0.7842 0.4048,-1.6991 0.4045,-2.7446 0,-0.6746 -0.009,-1.1805 -0.0254,-1.5177 l -0.0254,-1.5937 c 0,-0.4721 -0.0339,-1.0033 -0.1013,-1.5936 -0.0676,-0.5902 -0.1098,-0.9696 -0.1267,-1.1382 -0.1687,-1.3154 -0.2532,-2.2935 -0.2532,-2.9343 0,-1.4671 0.3286,-2.6729 0.9866,-3.6173 0.4385,-0.6072 0.9023,-0.9107 1.3916,-0.9108 0.8433,0 1.7078,0.725 2.5935,2.1752 0.8858,1.4502 1.6575,3.0691 2.3157,4.8566 0.6579,1.7875 1.029,2.9932 1.1135,3.6171 0.0169,0.1518 0.0337,0.3457 0.0505,0.5818 0.0171,0.2361 0.0254,0.4216 0.0254,0.5565 0.0508,0.7926 0.1182,1.4292 0.2027,1.9098 0.0844,0.4806 0.2783,0.919 0.582,1.3153 0.3037,0.3963 0.759,0.6534 1.3665,0.7714 0.3034,0.0506 0.6071,0.0759 0.9108,0.0758 0.5062,0 1.0711,-0.0591 1.6951,-0.1772 0.3711,-0.0843 0.6243,-0.2277 0.7591,-0.4301 0.135,-0.2023 0.2446,-0.4975 0.3291,-0.8853 0.0842,-0.4216 0.1684,-0.7252 0.2529,-0.9107 1.2817,-2.5128 1.9223,-5.4892 1.9221,-8.9294 0,-1.4503 -0.0889,-2.8837 -0.2659,-4.3002 -0.1772,-1.4166 -0.4431,-3.2715 -0.7976,-5.565 l -0.1264,-0.7335 c -0.574,-3.71 -1.5188,-7.07 -2.8348,-10.08 -1.3159,-3.0101 -3.2221,-5.2992 -5.719,-6.8673 -0.101,-0.0674 -0.5185,-0.3414 -1.2524,-0.822 -0.7339,-0.4805 -1.4844,-0.8726 -2.2519,-1.176 -0.7676,-0.3035 -1.4466,-0.4552 -2.0369,-0.4552 -0.5903,1e-4 -1.0964,0.1434 -1.5181,0.4302 -1.1469,0.7926 -1.7204,2.0743 -1.7204,3.845 2e-4,0.489 0.038,0.9781 0.114,1.4671 0.0759,0.4891 0.1814,1.0709 0.3164,1.7454 0.54,2.5969 1.9236,5.3034 4.1504,8.1195 0.4048,0.5565 1.071,1.1972 1.999,1.9223 0.5735,0.489 1.0205,0.8937 1.3411,1.2141 0.3205,0.3203 0.5988,0.7124 0.8349,1.1761 0.2364,0.4638 0.3628,0.9992 0.3799,1.6063 0.0169,0.5059 0.0591,1.2226 0.1265,2.1501 0.0676,0.978 0.1098,1.7116 0.1267,2.2007 0.0171,0.1517 0.0254,0.3457 0.0254,0.5817 0,0.4048 -0.0674,0.6071 -0.2024,0.6072 -0.1348,0 -0.3626,-0.2108 -0.6831,-0.6324 -0.8267,-1.1298 -1.7967,-2.053 -2.9099,-2.7696 -1.1136,-0.7166 -2.2942,-1.0749 -3.5425,-1.0748 -0.6411,1e-4 -1.2398,0.0929 -1.7964,0.2784 -2.311,0.7253 -3.9512,2.298 -4.9209,4.718 -0.9697,2.42 -1.4714,5.0803 -1.5049,7.9809 0,1.3828 0.0972,2.7319 0.2913,4.0472 0.1941,1.3153 0.4936,2.968 0.8987,4.9578 0.1855,0.8095 0.6411,1.2142 1.3662,1.2141 z"
             style="fill:#3b2b1c;fill-opacity:1;fill-rule:evenodd;stroke:none"
             id="path3152" />
          <path
             d="m 471.8336,311.378 c 0.8601,-0.002 1.636,-0.1216 2.3269,-0.3592 l 1.492,-0.4838 c 1.4834,-0.4754 2.5703,-0.9289 3.261,-1.3604 0.6906,-0.4315 1.2331,-1.1536 1.6272,-2.1663 0.3942,-1.0127 0.5893,-2.5308 0.5849,-4.5545 -0.005,-2.2428 -0.5303,-3.3631 -1.5762,-3.3608 -0.4216,9e-4 -0.7797,0.107 -1.0747,0.3185 -0.2946,0.2114 -0.4504,0.3171 -0.4672,0.3172 -0.4556,-0.0159 -0.6827,0.2966 -0.6812,0.9374 10e-4,0.5733 0.2058,1.5679 0.6138,2.9835 0.0339,0.1011 0.1274,0.4424 0.2805,1.0239 0.1531,0.5815 0.23,1.0408 0.2307,1.3781 2e-4,0.1686 -0.0247,0.3036 -0.0752,0.4049 -0.5881,0.9962 -1.363,1.4954 -2.3245,1.4975 -0.8266,0.002 -1.7084,-0.3252 -2.6462,-0.9808 -0.9375,-0.6557 -1.7786,-1.4338 -2.5227,-2.3344 -0.7441,-0.9006 -1.2349,-1.6711 -1.4724,-2.3114 -0.5259,-1.3817 -1.0523,-2.9404 -1.5789,-4.6762 l -0.6623,-1.9969 c -0.2036,-0.6067 -0.4077,-1.3693 -0.6121,-2.288 -0.2043,-0.9186 -0.3074,-1.6814 -0.3086,-2.2885 -7e-4,-0.2867 0.0242,-0.5229 0.0742,-0.7085 0.0506,-0.1181 0.0755,-0.2868 0.075,-0.506 -0.001,-0.4554 -0.1377,-1.2814 -0.4102,-2.4781 -0.1872,-0.7922 -0.2473,-1.1968 -0.1799,-1.2138 0.0337,-0.0338 0.0674,-0.0507 0.1013,-0.0508 -0.186,-0.1345 -0.2795,-0.5222 -0.281,-1.163 -10e-4,-0.6071 0.1062,-1.636 0.3223,-3.0867 0.0832,-0.5567 0.1162,-0.835 0.0993,-0.835 0.0677,0.0167 0.0516,0.4046 -0.048,1.1637 -0.0997,0.7085 -0.1492,1.2061 -0.1485,1.4927 7e-4,0.3205 0.0515,0.4721 0.1528,0.455 -0.0339,1e-4 -0.0507,-0.0673 -0.051,-0.2022 -10e-4,-0.5734 0.2278,-1.8302 0.6875,-3.7705 0.4597,-1.9404 0.8157,-3.1216 1.0676,-3.5437 0.7227,-1.2832 1.5596,-2.2842 2.5113,-3.003 0.9514,-0.7187 1.967,-1.0793 3.0466,-1.0816 1.2312,-0.003 2.4636,0.4753 3.6973,1.4338 1.5373,1.1771 2.8943,2.6793 4.0705,4.5065 1.1765,1.8271 2.0872,3.7181 2.7325,5.6729 0.1357,0.4044 0.3391,0.7708 0.6096,1.099 0.2705,0.3283 0.5071,0.4922 0.7094,0.4917 0.2193,-4e-4 0.3287,-0.2199 0.3277,-0.6584 -5e-4,-0.1517 -0.009,-0.2698 -0.0261,-0.354 -0.1897,-1.9052 -0.6231,-3.4051 -1.3003,-4.4998 -1.6082,-2.7116 -3.2622,-5.0858 -4.9619,-7.1226 -1.6998,-2.0368 -3.677,-3.7189 -5.9317,-5.0463 -2.2549,-1.3273 -4.7571,-1.988 -7.5066,-1.9821 -0.4216,9e-4 -0.7422,0.0101 -0.9614,0.0274 -2.4287,0.157 -4.3538,1.0929 -5.7754,2.8077 -1.4216,1.7147 -2.4082,3.8121 -2.9595,6.2923 -0.5512,2.4802 -0.8239,5.0946 -0.8178,7.8434 0.003,1.5852 0.091,3.1111 0.2629,4.5779 l 0.1033,0.9863 c 0.3952,3.3213 0.81,6.0396 1.2448,8.1551 0.4346,2.1154 1.1856,4.2049 2.2527,6.2684 1.0672,2.0635 2.5808,3.852 4.5408,5.3655 1.0645,0.7903 2.3523,1.4831 3.8633,2.0785 1.511,0.5954 2.9748,0.8915 4.3918,0.8885 z"
             style="fill:#3b2b1c;fill-opacity:1;fill-rule:evenodd;stroke:none"
             id="path3154" />
          <path
             d="m 487.088,298.0091 c 0.3206,-10e-4 0.7796,-0.205 1.377,-0.6118 0.5974,-0.4067 1.178,-0.8556 1.7412,-1.3466 0.5635,-0.4909 0.9209,-0.821 1.072,-0.9901 0.6221,-0.6261 1.1934,-1.3068 1.7136,-2.0421 0.5205,-0.7354 0.7798,-1.415 0.7776,-2.039 -2e-4,-0.0843 -0.0176,-0.2107 -0.052,-0.3792 -0.0339,-0.0842 -0.095,-0.6405 -0.1826,-1.6689 -0.0879,-1.0284 -0.1233,-1.5426 -0.1064,-1.5427 0.3034,-0.0347 0.633,0.1496 0.9885,0.5532 0.3557,0.4035 0.8894,1.0847 1.6011,2.0435 0.7287,1.0262 1.3598,1.8377 1.8933,2.4346 0.5334,0.5968 1.0532,0.9534 1.5595,1.0697 0.2535,0.0498 0.5064,0.0742 0.7596,0.0734 0.8769,-0.003 1.7194,-0.2968 2.5271,-0.8813 0.8078,-0.5846 1.4631,-1.3288 1.966,-2.2327 0.5029,-0.9039 0.7529,-1.8028 0.75,-2.6965 -10e-4,-0.3036 -0.0444,-0.6238 -0.1299,-0.9608 -0.3933,-1.567 -0.8913,-2.9313 -1.4941,-4.0928 -0.6028,-1.1616 -1.4439,-1.7405 -2.5234,-1.7369 -0.1856,7e-4 -0.388,0.0266 -0.607,0.078 -0.3877,0.1193 -0.7114,0.3565 -0.9717,0.7116 -0.2602,0.355 -0.5581,0.8619 -0.893,1.5207 -0.3015,0.6419 -0.5362,1.0643 -0.7044,1.2672 -0.1174,0.1353 -0.1757,0.3463 -0.1748,0.633 0.001,0.4047 0.1385,1.0451 0.4114,1.921 0.2048,0.7076 0.3074,1.1542 0.3081,1.3397 5e-4,0.1686 -0.0412,0.2615 -0.1255,0.2786 -0.3369,0.153 -0.8398,-0.1573 -1.5088,-0.9308 -0.6689,-0.7734 -1.3256,-1.6776 -1.9702,-2.7126 -0.6443,-1.0349 -1.06,-1.7628 -1.2471,-2.1838 -0.4589,-1.0271 -0.6906,-2.2068 -0.6953,-3.539 -0.003,-0.8095 0.0662,-1.636 0.2068,-2.4797 0.1404,-0.8437 0.3521,-1.8815 0.6345,-3.1135 0.1995,-0.8776 0.3406,-1.5273 0.4236,-1.9492 0.033,-0.2025 0.0493,-0.3543 0.0491,-0.4555 -0.003,-0.7926 -0.3716,-1.3689 -1.1064,-1.729 -0.7352,-0.3601 -1.575,-0.5385 -2.5196,-0.5353 -0.3711,10e-4 -0.6999,0.0277 -0.9865,0.0792 -1.3653,0.3082 -2.4517,0.7967 -3.2591,1.4656 -0.8074,0.6689 -1.3904,1.5773 -1.7492,2.7252 -0.3587,1.148 -0.5352,2.6157 -0.5291,4.4032 l 0.0291,1.0624 c -0.0159,0.2867 -0.023,0.7083 -0.021,1.2648 0.006,1.7032 0.1211,3.385 0.3459,5.0453 0.2249,1.6603 0.5522,3.6786 0.9822,6.055 0.5154,2.7976 0.8601,4.9465 1.0339,6.4468 0.0347,0.2529 0.1699,0.3789 0.406,0.3781 z"
             style="fill:#3b2b1c;fill-opacity:1;fill-rule:evenodd;stroke:none"
             id="path3156" />
          <path
             d="m 520.0053,285.2868 c -0.4388,0.002 -0.8743,-0.2446 -1.3067,-0.7401 -0.4324,-0.4954 -0.8061,-1.0544 -1.1211,-1.6769 -0.3149,-0.6225 -0.5239,-1.1106 -0.6267,-1.4642 l -0.5117,-1.1865 c -0.5625,-1.2284 -1.0359,-2.3688 -1.4204,-3.4209 -0.3843,-1.0522 -0.5784,-1.9409 -0.5818,-2.666 -0.004,-0.9612 0.3982,-1.4437 1.2078,-1.4475 0.3205,-0.002 0.7089,0.0725 1.165,0.2222 0.8447,0.2996 1.5085,0.6295 1.991,0.9898 0.4824,0.3604 1.0964,0.9182 1.8423,1.6736 l 0.6355,0.6294 c 0.187,0.3027 0.3654,0.618 0.5356,0.9461 0.1702,0.328 0.3066,0.652 0.4094,0.972 0.0852,0.2019 0.2044,0.408 0.3572,0.618 0.1528,0.2101 0.3054,0.3991 0.458,0.567 0.407,0.4366 0.6702,0.7979 0.7896,1.0841 0.2897,0.6732 0.4365,1.3555 0.4397,2.0469 0.004,0.7757 -0.1958,1.4174 -0.5982,1.9252 -0.4026,0.5078 -1.0171,0.7637 -1.8435,0.7675 -0.27,10e-4 -0.616,-0.0392 -1.0381,-0.1216 l -0.0505,2e-4 c -0.2354,0.1867 -0.4795,0.2805 -0.7324,0.2817 z m -0.8604,5.392 c 0.4553,-0.002 0.8599,-0.0925 1.2131,-0.2712 0.3536,-0.1788 0.7991,-0.4717 1.337,-0.879 0.7397,-0.5431 1.3789,-0.9508 1.9172,-1.2232 0.1853,-0.0852 0.5129,-0.3312 0.9834,-0.7381 0.0505,-0.0509 0.1807,-0.1653 0.3906,-0.3434 0.21,-0.178 0.3992,-0.3138 0.5674,-0.4073 0.1682,-0.0936 0.3115,-0.1406 0.4294,-0.1412 0.2364,-0.001 0.4141,0.1414 0.5335,0.4275 0.0854,0.2357 0.1286,0.4632 0.1296,0.6824 8e-4,0.1349 -0.0156,0.2783 -0.0486,0.4303 -0.0329,0.1519 -0.0493,0.2869 -0.0485,0.4049 9e-4,0.2361 0.1118,0.4717 0.3322,0.7068 0.1018,0.1513 0.3299,0.2261 0.6841,0.2244 0.3206,-10e-4 0.6997,-0.0623 1.1377,-0.1824 0.438,-0.1201 0.7075,-0.2225 0.8084,-0.3073 l 0.8068,-0.5856 c 0.9585,-0.6622 1.7234,-1.2138 2.295,-1.6549 0.5713,-0.4412 0.8315,-0.7206 0.7802,-0.8385 -0.0678,-0.1177 -0.0603,-0.3117 0.0227,-0.5819 0.0831,-0.2702 0.2247,-0.6671 0.4246,-1.1908 0.2671,-0.5915 0.4085,-1.0054 0.4243,-1.2415 0.0152,-0.3711 -0.0295,-0.9105 -0.134,-1.6183 -0.1043,-0.6066 -0.157,-1.0617 -0.1582,-1.3653 -10e-4,-0.1855 0.007,-0.3288 0.0232,-0.4301 -8e-4,-0.1518 -0.0623,-0.6995 -0.1848,-1.6433 -0.3321,-2.4437 -0.5003,-4.1462 -0.5047,-5.1074 -0.005,-1.0456 0.1533,-1.4679 0.4749,-1.267 0.8794,0.468 1.7129,1.0881 2.501,1.8602 0.788,0.772 1.5722,1.6621 2.353,2.6703 0.0849,0.1176 0.2976,0.5129 0.6382,1.1859 0.5959,1.1945 1.1318,2.1617 1.6074,2.9015 0.4758,0.7398 0.8909,1.0835 1.2449,1.0313 0.4719,-0.0697 0.7065,-0.3828 0.7038,-0.9393 -0.005,-1.0286 -0.7329,-2.5556 -2.1848,-4.5809 -1.4517,-2.0253 -3.1682,-3.8554 -5.1494,-5.4904 -1.9812,-1.6349 -3.7649,-2.5077 -5.3511,-2.6183 l -0.2024,9e-4 c -0.9277,0.0212 -1.8501,0.2616 -2.7673,0.7212 -0.9172,0.4597 -1.686,1.0535 -2.3069,1.7815 -0.2012,0.2708 -0.5893,1.0947 -1.1648,2.4718 -0.5757,1.3771 -0.8879,2.2176 -0.9372,2.5213 -0.0503,0.034 -0.4996,-0.4487 -1.3477,-1.4482 -0.8481,-0.9994 -1.3147,-1.5495 -1.3994,-1.6503 -0.728,-0.5531 -1.5354,-0.9962 -2.4226,-1.3293 -0.8872,-0.3331 -1.7779,-0.4976 -2.6719,-0.4934 -0.6409,0.003 -1.2644,0.1071 -1.8708,0.3123 -0.8926,0.2908 -1.8138,0.8095 -2.7635,1.556 -0.9494,0.7464 -1.7339,1.6101 -2.3535,2.5911 -0.6196,0.981 -0.927,1.969 -0.9224,2.9639 10e-4,0.2867 0.0452,0.6154 0.1312,0.986 0.3439,1.4149 0.6787,2.6149 1.0036,3.5999 0.3252,0.985 0.7896,1.9905 1.3931,3.0163 0.6037,1.0259 1.3713,1.9582 2.303,2.7971 0.6267,0.5367 1.3625,0.9675 2.2075,1.2924 0.8449,0.3249 1.8415,0.6448 2.9902,0.9599 l 0.8362,0.249 c 0.4729,0.1496 0.895,0.2235 1.2661,0.2217 z"
             style="fill:#3b2b1c;fill-opacity:1;fill-rule:evenodd;stroke:none"
             id="path3158" />
          <path
             d="m 548.7352,267.253 c -0.3884,-0.0652 -0.5854,-0.6121 -0.5915,-1.6408 -7e-4,-0.118 0.0215,-0.6325 0.0669,-1.5434 l 0.0454,-0.8604 -0.0562,-0.9609 c -0.0188,-0.3203 -0.0473,-0.8893 -0.0859,-1.7069 -0.0386,-0.8177 -0.0598,-1.5554 -0.0637,-2.213 -0.0139,-2.3946 0.2016,-4.4617 0.6467,-6.2013 0.0169,-0.0339 -0.0266,-0.2528 -0.1304,-0.657 -0.0171,-0.0673 -0.0647,-0.2694 -0.1425,-0.6062 -0.0779,-0.3368 -0.1177,-0.6317 -0.1192,-0.8847 -0.002,-0.4216 0.1397,-0.6332 0.4265,-0.6349 0.1516,-9e-4 0.346,0.057 0.5828,0.1737 0.2541,0.1502 0.4712,0.5242 0.6518,1.1218 0.1807,0.5976 0.3069,1.2461 0.3785,1.9456 0.0715,0.6994 0.0998,1.2178 0.0849,1.5552 -0.0151,0.2699 -0.0212,0.6915 -0.0178,1.2649 0.005,0.8431 0.0725,2.2846 0.2026,4.3244 0.0191,0.3877 3e-4,0.7757 -0.0564,1.1639 -0.0568,0.3882 -0.1511,0.8694 -0.2827,1.4435 -0.1147,0.5404 -0.2007,0.9878 -0.2578,1.3422 -0.0569,0.3545 -0.0759,0.7088 -0.0569,1.0628 0.0181,0.2191 -0.0219,0.5482 -0.1206,0.9872 -0.0986,0.4391 -0.2441,0.8194 -0.4363,1.1409 -0.1921,0.3216 -0.4147,0.4493 -0.6682,0.3834 z m -5.8908,30.9461 c 0.5229,-0.003 1.1923,-0.1756 2.0085,-0.5177 0.8162,-0.3421 1.5813,-0.726 2.2959,-1.1518 0.7144,-0.4258 1.147,-0.7234 1.2979,-0.893 1.0879,-1.4398 1.6215,-3.9135 1.601,-7.421 -0.009,-1.5177 -0.1391,-3.5575 -0.3903,-6.1194 l -0.0538,-0.5562 c -0.0368,-0.5394 -0.0996,-1.1545 -0.1879,-1.8454 -0.0884,-0.6909 -0.1504,-1.1796 -0.1858,-1.4661 -0.0181,-0.2023 -0.0891,-0.7963 -0.2129,-1.7821 -0.1238,-0.9858 -0.2053,-1.9255 -0.2444,-2.8191 -0.0181,-0.2022 -0.0278,-0.4636 -0.0298,-0.784 -0.003,-0.489 0.0879,-0.8395 0.2722,-1.0514 0.1843,-0.2118 0.596,-0.4714 1.2351,-0.7787 0.303,-0.1367 0.7598,0.1009 1.3706,0.7128 0.6109,0.612 1.2476,1.3039 1.9099,2.0757 0.8313,0.8215 1.545,1.69 2.1407,2.6056 0.5959,0.9156 1.2776,2.1047 2.0454,3.5674 0.3413,0.6894 0.6738,1.3114 0.9975,1.866 0.1709,0.37 0.4473,0.752 0.8291,1.1461 0.3819,0.394 0.7669,0.5899 1.1548,0.5877 0.135,-8e-4 0.2866,-0.0439 0.4546,-0.1292 0.1682,-0.1022 0.2515,-0.2797 0.25,-0.5327 -0.003,-0.5565 -0.3454,-1.3808 -1.0266,-2.4729 -0.2217,-0.4035 -0.4221,-0.7691 -0.6011,-1.0969 -0.1789,-0.3278 -0.3369,-0.6262 -0.4734,-0.8952 -0.4948,-0.9921 -0.9553,-1.8368 -1.3811,-2.5341 -0.426,-0.6974 -0.936,-1.3732 -1.5302,-2.0274 -0.034,-0.0335 -0.0974,-0.1048 -0.191,-0.2139 -0.0935,-0.109 -0.1994,-0.2138 -0.3181,-0.3143 -1.1377,-1.2581 -2.042,-2.2815 -2.7129,-3.0702 -0.6709,-0.7886 -0.9563,-1.2591 -0.8559,-1.4115 0.3686,-0.4406 0.6306,-1.0703 0.7861,-1.8892 0.1553,-0.8188 0.2966,-1.8778 0.4241,-3.1771 0.1118,-1.0462 0.1841,-1.6706 0.2165,-1.8731 0.1639,-0.8273 0.2432,-1.6963 0.2378,-2.6069 -0.005,-0.8095 -0.0559,-1.606 -0.153,-2.3896 -0.0975,-0.7836 -0.2513,-1.8156 -0.4612,-3.096 -0.1218,-0.657 -0.2268,-1.2888 -0.3147,-1.8954 -0.1414,-1.1122 -0.5227,-2.1091 -1.1436,-2.9908 -0.6208,-0.8817 -1.3926,-1.5855 -2.3149,-2.1113 -0.9224,-0.5258 -1.8899,-0.8363 -2.9026,-0.9315 -0.3377,-0.0318 -0.5908,-0.0471 -0.7593,-0.0461 -1.0964,0.006 -2.1196,0.2738 -3.0696,0.8021 -0.9499,0.5284 -1.7255,1.3256 -2.3266,2.3915 -0.4507,0.8121 -0.7576,1.674 -0.9209,2.5856 -0.1633,0.9116 -0.2417,1.9324 -0.2351,3.0622 0.003,0.4553 0.0237,1.155 0.063,2.0992 0.0393,0.9441 0.0603,1.6439 0.0629,2.0992 0.009,1.4502 -0.0632,3.6092 -0.215,6.477 -0.0887,2.1254 -0.147,3.6772 -0.1751,4.6554 -0.003,-0.4553 -0.0124,-0.6829 -0.0293,-0.6828 -0.0134,0.5735 -0.0159,1.5769 -0.008,3.0103 0.2386,0.4033 0.3975,0.8999 0.4769,1.4896 0.0793,0.5898 0.1386,1.3399 0.1777,2.2503 l 0.0564,0.9862 c 0.053,0.4045 0.0806,0.8006 0.083,1.1885 0.002,0.4047 -0.004,0.7546 -0.0193,1.0498 -0.0151,0.2953 -0.0305,0.5441 -0.0461,0.7466 -0.063,0.7761 -0.0933,1.3665 -0.0909,1.7712 0.003,0.4553 0.0215,0.8009 0.0567,1.0368 l 0.289,1.8196 c 0.263,1.668 0.4605,2.9864 0.5926,3.9553 0.1323,0.9689 0.2004,1.8159 0.2048,2.5411 0.002,0.3878 -0.0212,0.7084 -0.0703,0.9616 -0.033,0.1351 -0.0486,0.346 -0.0469,0.6327 0.004,0.6239 0.2027,1.466 0.5967,2.5261 0.1372,0.3702 0.2617,0.7531 0.3738,1.1487 0.1118,0.3957 0.1772,0.7537 0.196,1.074 0.0701,0.438 0.3833,0.6554 0.94,0.6521 z"
             style="fill:#3b2b1c;fill-opacity:1;fill-rule:evenodd;stroke:none"
             id="path3160" />
          <path
             d="m 563.3834,309.9379 c 0.3203,-0.002 0.6365,-0.0507 0.9478,-0.1456 0.3115,-0.0948 0.6943,-0.2366 1.1484,-0.4252 0.8745,-0.3769 1.9331,-0.9912 3.1756,-1.8429 0.5876,-0.4087 1.083,-0.7409 1.486,-0.9966 0.4031,-0.2557 0.8235,-0.4778 1.2608,-0.6663 0.1345,-0.0515 0.2339,-0.322 0.2981,-0.8115 0.0642,-0.4895 0.1116,-0.9536 0.1423,-1.3923 0.0308,-0.4386 0.0457,-0.717 0.0449,-0.835 l 0.0215,-0.5567 c 0.1131,-0.7596 0.168,-1.3418 0.1653,-1.7465 -0.003,-0.4891 -0.0833,-1.0619 -0.2395,-1.7185 -0.0518,-0.1683 -0.0781,-0.3199 -0.0789,-0.4548 -0.004,-0.5059 0.3238,-0.7611 0.9815,-0.7656 0.2024,-10e-4 0.5232,0.0302 0.9621,0.0946 0.439,0.0645 0.7598,0.0876 0.962,0.0694 1.9567,-0.0133 3.633,-0.3198 5.029,-0.9196 0.5047,-0.2058 0.7559,-0.4857 0.7534,-0.8399 -0.002,-0.3204 -0.2112,-0.6604 -0.6267,-1.0202 -0.4158,-0.3597 -0.8945,-0.66 -1.4358,-0.9009 -0.5415,-0.2408 -0.9641,-0.3602 -1.2675,-0.3582 -0.2024,10e-4 -0.3033,0.0696 -0.3023,0.2045 l -0.1518,10e-4 -1.4673,0.0353 c -2.3953,0.0163 -3.6028,-0.1779 -3.6223,-0.5825 -0.0535,-0.4212 -0.0826,-0.9691 -0.0872,-1.6436 l -0.0103,-1.5177 c -0.004,-0.6071 -0.0153,-1.0202 -0.0337,-1.2393 -0.0556,-0.7248 -0.0861,-1.4835 -0.0915,-2.276 l 0.005,-2.9344 c -0.01,-1.4502 -0.0852,-2.5965 -0.2259,-3.4387 -0.0346,-0.1516 -0.0534,-0.4297 -0.0561,-0.8344 -0.003,-0.371 0.0268,-1.012 0.0879,-1.9231 0.0608,-1.0123 0.0891,-1.7882 0.0854,-2.3278 -0.01,-1.4165 -0.2353,-2.3594 -0.677,-2.8286 -0.4419,-0.486 -0.7991,-0.9094 -1.0715,-1.2701 -0.2722,-0.3608 -0.4436,-0.7348 -0.5137,-1.1222 -0.0862,-0.2861 -0.1721,-0.5216 -0.2578,-0.7065 -0.1882,-0.4035 -0.2917,-0.7316 -0.3103,-0.9845 -0.0181,-0.1685 -0.0693,-0.2862 -0.1543,-0.3531 -0.0847,-0.0669 -0.1948,-0.1167 -0.3298,-0.1495 -0.0847,-0.0332 -0.1692,-0.0747 -0.2539,-0.1248 -0.0848,-0.05 -0.1529,-0.1338 -0.2041,-0.2515 -0.1722,-0.5048 -0.4446,-0.8739 -0.8174,-1.1075 -0.3726,-0.2336 -0.812,-0.3486 -1.3181,-0.3452 -0.6746,0.005 -1.3692,0.1906 -2.0835,0.5581 -0.7146,0.3674 -1.2471,0.7968 -1.5982,1.2883 -0.6018,0.7967 -1.0476,1.5965 -1.3371,2.3996 -0.2898,0.803 -0.4827,1.6095 -0.5784,2.4197 -0.0957,0.8101 -0.148,1.8054 -0.1567,2.986 0.002,0.3035 0.0691,1.4751 0.2011,3.5147 0.323,5.3269 0.491,8.9431 0.5039,10.8486 0.0115,1.7032 -0.0754,2.5554 -0.2609,2.5567 -0.6915,0.0215 -1.4498,0.1279 -2.2752,0.319 -0.8252,0.1911 -1.5483,0.5122 -2.1694,0.9634 -0.6211,0.4511 -0.8953,1.0558 -0.8225,1.8142 0.071,0.5392 0.2421,0.909 0.5134,1.1096 0.2712,0.2005 0.6348,0.2992 1.0901,0.2961 0.2532,-0.002 0.7165,-0.0555 1.3906,-0.1612 0.5896,-0.1221 1.0867,-0.1845 1.4917,-0.1873 0.6409,-0.004 1.1313,0.1694 1.4709,0.5212 0.2039,0.2179 0.3326,0.5332 0.386,0.946 0.0535,0.4128 0.0826,0.9481 0.0869,1.6057 0.003,0.4891 0.014,0.8263 0.0323,1.0117 l 0.2693,2.4012 c 0.1411,0.8929 0.2483,1.7859 0.3217,2.6792 0.0183,0.2023 -0.0212,0.5736 -0.1189,1.1139 -0.0161,0.1181 -0.04,0.308 -0.072,0.5696 -0.032,0.2616 -0.0473,0.4852 -0.0459,0.6707 0.003,0.5059 0.124,0.8761 0.3618,1.1105 0.4075,0.402 0.8897,0.6011 1.4463,0.5973 z"
             style="fill:#3b2b1c;fill-opacity:1;fill-rule:evenodd;stroke:none"
             id="path3162" />
          <path
             d="m 586.0399,298.5962 c 0.5059,-0.004 0.9182,-0.1379 1.2366,-0.4018 0.3186,-0.2639 0.4758,-0.6319 0.4722,-1.1041 -0.002,-0.3035 -0.0982,-0.6822 -0.2874,-1.136 -0.2058,-0.4538 -0.3105,-0.883 -0.3137,-1.2877 -0.004,-0.4553 0.1243,-0.84 0.383,-1.154 0.2591,-0.314 0.6822,-0.6926 1.2691,-1.1356 l 0.905,-0.7407 c 1.5574,-1.4457 2.9121,-2.932 4.064,-4.4588 1.1521,-1.5268 2.0923,-3.17 2.8205,-4.9296 0.3975,-0.9307 0.7029,-1.7847 0.9161,-2.5622 0.2131,-0.7774 0.3918,-1.6726 0.5356,-2.6856 l 0.0237,-0.2025 c -0.004,-0.4553 -0.1643,-1.057 -0.4822,-1.8049 -0.3181,-0.748 -0.7168,-1.5923 -1.1965,-2.5329 l -0.2569,-0.4786 c -1.062,-2.0491 -2.3823,-3.6914 -3.9607,-4.9269 -0.4755,-0.4179 -0.9336,-0.7221 -1.3735,-0.9125 -0.4402,-0.1905 -0.9727,-0.3255 -1.5974,-0.4049 -0.0845,-0.0162 -0.3211,-0.0733 -0.7097,-0.1715 -0.8115,-0.2128 -1.3775,-0.318 -1.6978,-0.3155 -0.1687,10e-4 -0.3034,0.0277 -0.4043,0.0791 -1.1765,0.5489 -2.0915,1.1126 -2.7448,1.6911 -0.6534,0.5785 -1.1446,1.3918 -1.4737,2.44 -0.1308,0.507 -0.2602,1.2331 -0.3877,2.1785 -0.0312,0.3207 0.0471,0.6321 0.2351,0.9341 0.188,0.3021 0.3748,0.4524 0.5603,0.451 0.1856,-0.002 0.2683,-0.1876 0.2486,-0.5585 0.0144,-0.3205 0.1709,-0.7897 0.4697,-1.4076 0.2988,-0.6179 0.657,-1.1688 1.0749,-1.6527 0.418,-0.4839 0.8294,-0.7275 1.2342,-0.7307 0.1855,-10e-4 0.3376,0.0395 0.4565,0.1229 0.627,0.3661 1.1248,0.9145 1.4932,1.6452 0.3684,0.7307 0.5554,1.4755 0.5615,2.2343 0.001,0.1518 -0.0142,0.3627 -0.0456,0.6328 -0.5027,2.5841 -1.1067,5.1269 -1.8125,7.6284 l -0.3423,1.5204 c -0.3418,1.5879 -0.6565,2.8679 -0.9439,3.8398 -0.2876,0.972 -0.5996,1.5352 -0.9358,1.6896 -0.3232,-2.5102 -1.0254,-4.9247 -2.1064,-7.2435 -1.0808,-2.3187 -2.2644,-4.2573 -3.5501,-5.8155 -1.2859,-1.5583 -2.3601,-2.4858 -3.2229,-2.7826 -1.0034,-1.0377 -1.7917,-1.5543 -2.3652,-1.5498 -0.3206,0.003 -0.543,0.1477 -0.6672,0.4353 -0.1243,0.2877 -0.1853,0.5664 -0.1831,0.8362 9e-4,0.1181 0.247,0.3227 0.7385,0.614 0.4914,0.2913 1.4394,0.7012 2.8437,1.2298 0.8628,0.3136 1.8172,1.5625 2.8633,3.7466 1.0462,2.1842 2.0051,4.5503 2.8772,7.0983 0.8718,2.5481 1.4734,4.5038 1.8047,5.8672 -0.0808,0.456 -0.2866,1.09 -0.6177,1.9021 -0.2314,0.6089 -0.4128,1.1331 -0.5442,1.5726 -0.1316,0.4395 -0.1958,0.8616 -0.1926,1.2664 0.005,0.5902 0.229,1.2292 0.6731,1.9172 0.2564,0.4196 0.4607,0.6836 0.6135,0.792 0.1526,0.1084 0.3555,0.1701 0.6087,0.1849 0.405,0.0306 0.7683,0.112 1.0898,0.2444 0.457,0.1988 0.9048,0.2965 1.3435,0.293 z"
             style="fill:#3b2b1c;fill-opacity:1;fill-rule:evenodd;stroke:none"
             id="path3164" />
          <path
             d="m 440.8693,161.9891 c -0.9918,7.569 3.7035,12.0434 11.5699,12.5974 7.9971,-0.3382 11.4117,-5.6451 11.57,-12.5974 -0.8428,-7.7803 -5.3122,-13.328 -11.57,-12.5975 -7.498,0.6061 -10.1587,4.9659 -11.5699,12.5975 z"
             style="fill:#924a75;fill-opacity:1;fill-rule:evenodd;stroke:none"
             id="path3166" />
          <g
             id="g3168"
             transform="matrix(6.709317e-5,0,0,-6.707495e-5,440.8693,171.5865)">
            <path
               d="M 0,187812 C 10914,85381 79421,-4556 172446,0 251984,-2404 333687,94635 344892,187812 343319,276537 265805,378237 172446,375624 88954,382200 6222,293034 0,187812 Z"
               style="fill:none;stroke:#595959;stroke-width:3175;stroke-linecap:butt;stroke-linejoin:miter;stroke-miterlimit:8;stroke-dasharray:none;stroke-opacity:0"
               id="path3170" />
          </g>
          <path
             d="m 505.0007,152.1317 c -1.3775,0.0249 -2.746,-0.1771 -4.013,-0.5924 -2.2412,-0.6908 -4.7435,-0.6908 -6.9846,0 -1.2671,0.4153 -2.6355,0.6173 -4.0131,0.5924 -1.3779,0.0249 -2.7468,-0.1771 -4.0144,-0.5924 -1.102,-0.3642 -2.2939,-0.541 -3.4934,-0.5181 -1.1998,-0.023 -2.3918,0.1538 -3.4941,0.5181 -1.2681,0.4153 -2.6375,0.6173 -4.0159,0.5924 -1.378,0.0249 -2.7469,-0.1772 -4.0145,-0.5924 -1.1018,-0.3642 -2.2933,-0.541 -3.4927,-0.5181 -1.2005,-0.0231 -2.3934,0.1539 -3.4962,0.5186 -1.2686,0.4148 -2.6381,0.6167 -4.0167,0.5919 -1.3785,0.0248 -2.7481,-0.1771 -4.0166,-0.5919 -1.1029,-0.3646 -2.2957,-0.5416 -3.4963,-0.5186 v -1.1105 c 1.3786,-0.0247 2.7481,0.1771 4.0166,0.5919 1.1029,0.3647 2.2957,0.5416 3.4963,0.5186 1.2006,0.023 2.3934,-0.154 3.4963,-0.5186 1.2686,-0.4149 2.638,-0.6167 4.0166,-0.5919 1.3778,-0.0249 2.7464,0.1771 4.0138,0.5924 1.102,0.3642 2.2938,0.541 3.4934,0.5181 1.1999,0.0229 2.3922,-0.1539 3.4948,-0.5181 1.2679,-0.4153 2.637,-0.6173 4.0152,-0.5924 1.3779,-0.0249 2.7469,0.1771 4.0145,0.5924 2.2414,0.6908 4.7438,0.6908 6.9853,0 2.5763,-0.7899 5.4497,-0.7899 8.0261,0 2.2416,0.6908 4.7444,0.6908 6.986,0 1.2674,-0.4153 2.636,-0.6173 4.0137,-0.5924 v 1.1105 c -1.1995,-0.0229 -2.3913,0.1539 -3.4933,0.5181 -1.2674,0.4152 -2.636,0.6173 -4.0138,0.5924 z"
             style="fill:#924a75;fill-opacity:1;fill-rule:evenodd;stroke:none"
             id="path3172" />
          <path
             d="m 444.6104,206.6431 -0.6437,0.6449 c -0.2047,0.2043 -0.3109,0.487 -0.2916,0.7754 l 0.4869,7.1361 c 0.1442,2.1041 -0.5546,4.1792 -1.942,5.7679 l -1.5637,1.7875 2.4577,4.987 c 0.2652,0.5373 0.0443,1.1878 -0.4932,1.4528 -0.1491,0.0735 -0.313,0.1118 -0.4791,0.1119 -0.2331,-0.002 -0.459,-0.0795 -0.6437,-0.2213 l -6.1986,-4.6241 v 6.5173 c 0.002,0.5863 -0.4712,1.0634 -1.0576,1.0656 -0.005,2e-4 -0.0101,0 -0.0152,0 -0.2996,4e-4 -0.5848,-0.1283 -0.7826,-0.3533 l -4.3419,-4.8206 c -0.4389,-0.4858 -0.9731,-0.8762 -1.5692,-1.1467 l -2.8608,-1.2939 c -3.5542,-1.6079 -6.5217,-4.279 -8.4927,-7.6447 l -6.017,-10.2889 c -1.0083,-1.7242 -2.773,-2.87 -4.7587,-3.0896 l -7.9508,-0.8799 c -5.2282,-0.6582 -10.2228,-2.5581 -14.5662,-5.5411 l -4.5166,-3.1033 c -3.9092,-2.6888 -7.1928,-6.1881 -9.6273,-10.26 l -4.126,-6.9009 c -1.4946,-2.6135 -3.8259,-4.6478 -6.6182,-5.7748 -3.8158,-1.4615 -7.8802,-2.1643 -11.9654,-2.0694 -3.337,0.023 -6.6654,0.3451 -9.945,0.9625 -0.2435,0.0413 -0.4902,0.0611 -0.7372,0.0592 -2.2787,0.003 -4.1281,-1.8419 -4.1308,-4.1201 -0.002,-1.9964 1.4259,-3.708 3.3909,-4.0637 3.8012,-0.7104 7.6584,-1.0786 11.5253,-1.0999 5.5125,-0.1244 10.9867,0.9446 16.0474,3.1334 l 0.3933,0.2159 v -11.9401 c 0,-2.2782 1.8473,-4.1249 4.1261,-4.1249 h 4.1259 c 2.2789,0 4.1261,1.8467 4.1261,4.1249 0,2.2781 -1.8472,4.1248 -4.1261,4.1248 v 0.3864 h 6.8767 v -4.5112 c 0,-2.2782 1.8473,-4.1249 4.126,-4.1249 h 16.5041 c 2.2788,0 4.126,1.8467 4.126,4.1249 0,2.2781 -1.8472,4.1248 -4.126,4.1248 h -12.3781 v 0.3933 c 4.8687,0.0292 9.5983,1.6272 13.4866,4.5566 l 1.3629,1.0285 c 1.1086,0.8375 2.3138,1.5387 3.5896,2.0885 l 5.0888,2.1931 c 2.1062,0.9025 4.3006,1.5831 6.5479,2.0308 l 10.2862,-10.0826 c 1.6498,-1.5714 4.2614,-1.5083 5.8333,0.1411 1.5403,1.6161 1.515,4.1639 -0.0569,5.7493 l -9.0552,8.8767 0.85,1.7558 14.2292,-5.4352 c 2.155,-0.7402 4.5023,0.4062 5.2429,2.5606 0.7043,2.0495 -0.2978,4.2946 -2.2942,5.1392 l -13.3917,5.1286 1.6023,2.8613 c 0.9737,1.7399 1.591,3.6563 1.8155,5.6373 l 0.6643,5.8794 c 0.1399,1.2406 1.1896,2.1781 2.4384,2.1779 h 3.1275 c 1.4754,-10e-5 2.9119,0.4716 4.0999,1.3461 l 2.8579,2.1037 c 1.2834,0.9472 1.5556,2.755 0.6082,4.0378 -0.0854,0.1156 -0.1792,0.2247 -0.2808,0.3263 z m -17.0624,-10.502 -13.5223,8.7875 2.0849,3.5638 12.7563,-8.2869 c -0.6604,-0.9078 -1.0758,-1.9704 -1.2062,-3.0853 z"
             style="fill:#924a75;fill-opacity:1;fill-rule:evenodd;stroke:none"
             id="path3174" />
          <path
             d="m 416.6671,211.5789 15.7029,-11.7935 -6.9554,-9.256 -15.7029,11.7935 z"
             style="fill:#924a75;fill-opacity:1;fill-rule:nonzero;stroke:none"
             id="path3176" />
        </g>
      </g>
    </g>
  </g>
</svg>
